<svg width="33" height="33" viewBox="0 0 33 33" fill="none" xmlns="http://www.w3.org/2000/svg">
<path d="M8.14905 6.98495C8.14905 6.34201 8.67026 5.8208 9.3132 5.8208H11.6329C11.6376 5.8208 11.6415 5.82467 11.6415 5.82944C11.6415 5.83442 11.6457 5.83837 11.6507 5.83807C11.8401 5.82661 12.0311 5.8208 12.2236 5.8208C17.0456 5.8208 20.9547 9.46924 20.9547 13.9698V20.6637C20.9547 20.8245 21.0849 20.9547 21.2457 20.9547H23.5603C24.3404 20.9547 24.729 21.8997 24.1745 22.4484L19.2406 27.3317C18.9003 27.6685 18.3525 27.6685 18.0122 27.3317L13.0783 22.4484C12.5238 21.8997 12.9124 20.9547 13.6925 20.9547H16.007C16.1678 20.9547 16.2981 20.8245 16.2981 20.6637V13.9698C16.2981 12.3384 14.7817 10.4774 12.2236 10.4774C12.0293 10.4774 11.841 10.4881 11.659 10.5087C11.6496 10.5098 11.6415 10.5024 11.6415 10.4931C11.6415 10.4844 11.6345 10.4774 11.6258 10.4774H9.3132C8.67026 10.4774 8.14905 9.9562 8.14905 9.31324V6.98495Z" fill="white"/>
</svg>
