<svg width="26" height="26" viewBox="0 0 26 26" fill="none" xmlns="http://www.w3.org/2000/svg">
<path d="M12.7743 25.5485C19.8293 25.5485 25.5485 19.8293 25.5485 12.7743C25.5485 5.71923 19.8293 0 12.7743 0C5.71923 0 0 5.71923 0 12.7743C0 19.8293 5.71923 25.5485 12.7743 25.5485Z" fill="#FF6723"/>
<path d="M0.0265613 11.9437C0.00894194 12.2183 0 12.4952 0 12.7743C0 12.8286 0.000337688 12.8829 0.00102202 12.9372C0.264427 12.8354 0.583036 12.7037 0.9391 12.54C1.93992 12.0798 3.24839 11.3605 4.45925 10.3268C5.34357 9.57193 6.18325 8.64288 6.81001 7.51792C7.53891 7.89832 8.23566 8.29286 8.90129 8.69826C7.13652 10.7821 5.95386 12.9141 5.16515 14.8859C4.2336 17.2148 3.85478 19.3115 3.70892 20.8285C3.67812 21.1488 3.65768 21.4434 3.64463 21.7091C3.92866 21.9993 4.2264 22.2759 4.53682 22.5381C4.53595 22.1429 4.55228 21.5907 4.61717 20.9158C4.75644 19.4674 5.11898 17.4581 6.01233 15.2247C6.77749 13.3119 7.93437 11.2282 9.68262 9.18806C10.642 9.80698 11.5329 10.4473 12.3592 11.0985C11.7758 11.7484 11.2841 12.4744 10.8857 13.2501C8.91963 17.0788 9.19619 22.2108 12.0402 25.5277C12.2831 25.5415 12.5279 25.5485 12.7743 25.5485C12.9527 25.5485 13.1304 25.5449 13.307 25.5376C10.2218 22.601 9.74019 17.4782 11.6974 13.667C12.0689 12.9434 12.5269 12.2711 13.0693 11.6734C14.9108 13.2057 16.4074 14.7789 17.6101 16.2559C19.213 18.2244 20.2944 20.0226 20.9739 21.3255C21.1411 21.6463 21.284 21.937 21.4043 22.1926C21.6416 21.9751 21.8706 21.7487 22.0909 21.514C21.9985 21.3243 21.896 21.1205 21.7829 20.9036C21.0794 19.5547 19.9652 17.7031 18.3176 15.6797C17.0952 14.1785 15.5794 12.5831 13.7207 11.0286C14.5737 10.2713 15.5924 9.67951 16.7715 9.31827C18.9951 8.63704 21.8404 8.76076 25.2937 10.223C25.2185 9.85187 25.1272 9.48662 25.0206 9.12802C21.6891 7.84093 18.8336 7.73225 16.5043 8.44588C15.1392 8.86405 13.9708 9.55989 13.0047 10.4457C12.1682 9.78252 11.2671 9.13012 10.2974 8.49917C12.491 6.13863 15.5165 3.86991 19.6887 2.03126C19.3757 1.82939 19.0534 1.64083 18.7223 1.46638C14.667 3.34064 11.6925 5.62483 9.51354 8.00316C8.7834 7.55405 8.01667 7.11771 7.21175 6.69827C7.28244 6.53218 7.34849 6.36237 7.40935 6.18875C7.91931 4.73436 8.06111 3.03848 7.61994 1.08252C7.33261 1.20938 7.05081 1.34651 6.77507 1.49345C7.12483 3.20275 6.97993 4.65579 6.54827 5.88682C6.50085 6.02205 6.44987 6.15489 6.39557 6.28534C5.2794 5.73731 4.09346 5.22225 2.83409 4.75016C2.63487 4.99664 2.44462 5.2507 2.26386 5.5118C3.58882 5.99852 4.83113 6.53366 5.99521 7.10531C5.43463 8.10088 4.68096 8.93787 3.86683 9.63288C2.73955 10.5951 1.51027 11.2731 0.557879 11.711C0.368318 11.7982 0.190181 11.8757 0.0265613 11.9437Z" fill="#212121"/>
</svg>
