<svg width="29" height="28" viewBox="0 0 29 28" fill="none" xmlns="http://www.w3.org/2000/svg">
<path d="M18.3143 0.107204C8.11892 2.0342 5.69814 11.0869 5.78741 14.4937L7.71913 14.433C7.8975 11.1322 9.13474 8.47417 10.7925 6.50721L10.7982 6.50044C11.3083 5.8951 11.6615 5.47606 12.1768 6.26926L18.2996 15.6777L20.0289 14.7532L13.7696 5.11283C13.2599 4.3213 13.4337 4.11518 14.0557 3.70511C14.8986 3.18972 15.7504 2.79897 16.5589 2.53217C17.2771 2.30068 17.4508 2.66442 17.5259 2.8446C19.3465 7.21733 21.4842 8.9205 22.7033 9.42053C24.5961 10.137 26.0066 10.3795 28.5205 9.52461C28.7628 9.44184 28.8477 9.16757 28.6543 8.85511C28.6543 8.85511 26.9585 6.19879 25.3069 3.2463C25.3069 3.2463 23.4218 -0.692712 18.3143 0.107204Z" fill="url(#paint0_radial_202_763)"/>
<path d="M6.6609 15.0927C6.6609 15.0927 6.6609 4.53176 17.11 1.40259" stroke="url(#paint1_linear_202_763)" stroke-width="1.46788"/>
<path d="M19.8962 16.0184C19.9742 16.1381 20.1345 16.1718 20.2542 16.0939C20.3739 16.0159 20.4076 15.8556 20.3296 15.7359L19.8962 16.0184ZM13.2492 4.87112C13.1712 4.75145 13.0109 4.71766 12.8913 4.79564C12.7716 4.87363 12.7378 5.03388 12.8158 5.15357L13.2492 4.87112ZM20.3296 15.7359L13.2492 4.87112L12.8158 5.15357L19.8962 16.0184L20.3296 15.7359Z" fill="url(#paint2_linear_202_763)"/>
<path d="M13.0325 2.19943C14.5041 1.31957 16.2569 0.627989 18.3364 0.234714C20.8495 -0.158322 22.5611 0.613546 23.6453 1.47796C24.189 1.91145 24.5763 2.36953 24.8275 2.71889C24.9531 2.89346 25.0444 3.04062 25.1041 3.14352C25.1339 3.19495 25.1557 3.2353 25.17 3.26246C25.1771 3.27603 25.1824 3.28631 25.1857 3.29302L25.1893 3.30037L25.1901 3.3023L25.1941 3.30949C26.0209 4.78762 26.8587 6.19132 27.4896 7.22537C27.8051 7.74236 28.069 8.16717 28.2539 8.46265C28.3465 8.61039 28.4193 8.72586 28.469 8.80449L28.5258 8.89408L28.5449 8.92409C28.6286 9.05952 28.6424 9.17105 28.6248 9.24688C28.6081 9.3192 28.5598 9.37455 28.4789 9.40228C27.2327 9.82606 26.2682 9.97504 25.3852 9.93272C24.5021 9.89041 23.6915 9.65628 22.7508 9.30027C21.5735 8.81669 19.4569 7.14601 17.6453 2.79495C17.6066 2.70207 17.5311 2.53044 17.3495 2.42281C17.1639 2.31279 16.8981 2.287 16.5183 2.40941C16.3155 2.47636 16.11 2.55098 15.9027 2.63329C15.2739 2.88298 14.6283 3.20341 13.9883 3.59477L13.9846 3.59719L13.9831 3.59818L13.0325 2.19943Z" fill="url(#paint3_radial_202_763)"/>
<path d="M6.72494 27.7738C10.4391 27.7738 13.4499 24.763 13.4499 21.0489C13.4499 17.3348 10.4391 14.324 6.72494 14.324C3.01086 14.324 0 17.3348 0 21.0489C0 24.763 3.01086 27.7738 6.72494 27.7738Z" fill="url(#paint4_radial_202_763)"/>
<path d="M6.72494 27.7738C10.4391 27.7738 13.4499 24.763 13.4499 21.0489C13.4499 17.3348 10.4391 14.324 6.72494 14.324C3.01086 14.324 0 17.3348 0 21.0489C0 24.763 3.01086 27.7738 6.72494 27.7738Z" fill="url(#paint5_radial_202_763)"/>
<path d="M22.2751 27.7738C25.9892 27.7738 29 24.763 29 21.0489C29 17.3348 25.9892 14.324 22.2751 14.324C18.561 14.324 15.5501 17.3348 15.5501 21.0489C15.5501 24.763 18.561 27.7738 22.2751 27.7738Z" fill="url(#paint6_radial_202_763)"/>
<path d="M22.2751 27.7738C25.9892 27.7738 29 24.763 29 21.0489C29 17.3348 25.9892 14.324 22.2751 14.324C18.561 14.324 15.5501 17.3348 15.5501 21.0489C15.5501 24.763 18.561 27.7738 22.2751 27.7738Z" fill="url(#paint7_radial_202_763)"/>
<path d="M23.2996 1.92346C21.708 0.43746 20.5434 0.989702 20.0961 1.37318C19.6487 1.75665 18.5275 3.97264 21.3511 6.75137C24.1746 9.53012 27.5265 8.80176 27.5265 8.80176C27.5265 8.80176 24.8913 3.40947 23.2996 1.92346Z" fill="url(#paint8_linear_202_763)" fill-opacity="0.2"/>
<defs>
<radialGradient id="paint0_radial_202_763" cx="0" cy="0" r="1" gradientUnits="userSpaceOnUse" gradientTransform="translate(24.9723 2.67981) rotate(149.036) scale(22.6949 33.5087)">
<stop stop-color="#86BC09"/>
<stop offset="1" stop-color="#79B024"/>
</radialGradient>
<linearGradient id="paint1_linear_202_763" x1="17.11" y1="1.06732" x2="6.6609" y2="14.478" gradientUnits="userSpaceOnUse">
<stop stop-color="#A7D050" stop-opacity="0"/>
<stop offset="0.526042" stop-color="#A7D050" stop-opacity="0.75"/>
</linearGradient>
<linearGradient id="paint2_linear_202_763" x1="13.0325" y1="5.01234" x2="19.7364" y2="15.2603" gradientUnits="userSpaceOnUse">
<stop stop-color="#A7D050" stop-opacity="0"/>
<stop offset="0.276042" stop-color="#A7D050" stop-opacity="0.6"/>
</linearGradient>
<radialGradient id="paint3_radial_202_763" cx="0" cy="0" r="1" gradientUnits="userSpaceOnUse" gradientTransform="translate(29.7158 -0.401402) rotate(118.501) scale(10.1957 15.0538)">
<stop offset="0.491849" stop-color="#B8FF2C"/>
<stop offset="1" stop-color="#A7DC3E" stop-opacity="0"/>
</radialGradient>
<radialGradient id="paint4_radial_202_763" cx="0" cy="0" r="1" gradientUnits="userSpaceOnUse" gradientTransform="translate(8.55671 19.0186) rotate(134.7) scale(9.40913)">
<stop stop-color="#FF7495"/>
<stop offset="0.505208" stop-color="#FF1D61"/>
<stop offset="1" stop-color="#CF1D75"/>
</radialGradient>
<radialGradient id="paint5_radial_202_763" cx="0" cy="0" r="1" gradientUnits="userSpaceOnUse" gradientTransform="translate(-0.430251 17.9039) rotate(34.3803) scale(11.2269)">
<stop stop-color="#902429"/>
<stop offset="1" stop-color="#D11146" stop-opacity="0"/>
</radialGradient>
<radialGradient id="paint6_radial_202_763" cx="0" cy="0" r="1" gradientUnits="userSpaceOnUse" gradientTransform="translate(24.1069 19.0186) rotate(134.7) scale(9.40913)">
<stop stop-color="#FF7495"/>
<stop offset="0.505208" stop-color="#FF1D61"/>
<stop offset="1" stop-color="#CF1D75"/>
</radialGradient>
<radialGradient id="paint7_radial_202_763" cx="0" cy="0" r="1" gradientUnits="userSpaceOnUse" gradientTransform="translate(15.1199 17.9039) rotate(34.3803) scale(11.2269)">
<stop stop-color="#902429"/>
<stop offset="1" stop-color="#D11146" stop-opacity="0"/>
</radialGradient>
<linearGradient id="paint8_linear_202_763" x1="24.7654" y1="2.35237" x2="20.798" y2="6.5991" gradientUnits="userSpaceOnUse">
<stop stop-color="#BDF45B"/>
<stop offset="0.833333" stop-color="#BDF45B" stop-opacity="0"/>
</linearGradient>
</defs>
</svg>
