<svg width="33" height="32" viewBox="0 0 33 32" fill="none" xmlns="http://www.w3.org/2000/svg">
<path d="M16.3683 31.6528C25.122 31.6528 29.4962 25.7753 29.4962 18.5249C29.4962 11.2745 25.122 5.39697 16.3683 5.39697C7.61457 5.39697 3.24033 11.2745 3.24033 18.5249C3.24033 25.7753 7.61457 31.6528 16.3683 31.6528Z" fill="url(#paint0_radial_202_621)"/>
<path d="M16.3683 31.6528C25.122 31.6528 29.4962 25.7753 29.4962 18.5249C29.4962 11.2745 25.122 5.39697 16.3683 5.39697C7.61457 5.39697 3.24033 11.2745 3.24033 18.5249C3.24033 25.7753 7.61457 31.6528 16.3683 31.6528Z" fill="url(#paint1_radial_202_621)"/>
<path d="M16.3683 31.6528C25.122 31.6528 29.4962 25.7753 29.4962 18.5249C29.4962 11.2745 25.122 5.39697 16.3683 5.39697C7.61457 5.39697 3.24033 11.2745 3.24033 18.5249C3.24033 25.7753 7.61457 31.6528 16.3683 31.6528Z" fill="url(#paint2_radial_202_621)"/>
<path d="M19.5348 0C18.7763 0 18.0835 0.248414 17.5228 0.658837C16.8851 1.28527 15.8405 1.28527 15.2028 0.658837C14.642 0.248414 13.9494 0 13.1907 0C11.3217 0 9.80429 1.49047 9.80429 3.32657V8.75919H22.9213V3.32657C22.9213 1.49047 21.404 0 19.5348 0Z" fill="url(#paint3_linear_202_621)"/>
<path d="M13.5113 5.2777C14.9687 5.2777 16.1501 4.09625 16.1501 2.63885C16.1501 1.18145 14.9687 0 13.5113 0C12.0539 0 10.8724 1.18145 10.8724 2.63885C10.8724 4.09625 12.0539 5.2777 13.5113 5.2777Z" fill="url(#paint4_radial_202_621)" fill-opacity="0.75"/>
<path d="M20.321 5.27776C21.6593 5.27776 22.7442 4.20298 22.7442 2.87716C22.7442 1.55135 21.6593 0.476562 20.321 0.476562C18.9827 0.476562 17.8978 1.55135 17.8978 2.87716C17.8978 4.20298 18.9827 5.27776 20.321 5.27776Z" fill="url(#paint5_radial_202_621)" fill-opacity="0.75"/>
<path d="M22.9306 3.21729H9.70953C9.64911 3.21729 9.60013 3.26626 9.60013 3.32668V4.31128H23.04V3.32668C23.04 3.26626 22.9911 3.21729 22.9306 3.21729Z" fill="url(#paint6_linear_202_621)"/>
<path d="M22.9306 3.21729H9.70953C9.64911 3.21729 9.60013 3.26626 9.60013 3.32668V4.31128H23.04V3.32668C23.04 3.26626 22.9911 3.21729 22.9306 3.21729Z" fill="url(#paint7_linear_202_621)"/>
<g opacity="0.8">
<path d="M10.5444 17.916C12.669 17.916 14.3915 16.1935 14.3915 14.0688C14.3915 11.9441 12.669 10.2217 10.5444 10.2217C8.41968 10.2217 6.69727 11.9441 6.69727 14.0688C6.69727 16.1935 8.41968 17.916 10.5444 17.916Z" fill="#D3751F"/>
</g>
<path d="M20.7333 17.7845C22.858 17.7845 24.5804 16.0621 24.5804 13.9375C24.5804 11.8127 22.858 10.0903 20.7333 10.0903C18.6086 10.0903 16.8862 11.8127 16.8862 13.9375C16.8862 16.0621 18.6086 17.7845 20.7333 17.7845Z" fill="#FF9B40"/>
<path d="M11.4672 17.475C13.6664 17.475 15.4493 15.6921 15.4493 13.4929C15.4493 11.2935 13.6664 9.51074 11.4672 9.51074C9.26791 9.51074 7.48505 11.2935 7.48505 13.4929C7.48505 15.6921 9.26791 17.475 11.4672 17.475Z" fill="white"/>
<path d="M21.2475 17.475C23.4468 17.475 25.2296 15.6921 25.2296 13.4929C25.2296 11.2935 23.4468 9.51074 21.2475 9.51074C19.0481 9.51074 17.2654 11.2935 17.2654 13.4929C17.2654 15.6921 19.0481 17.475 21.2475 17.475Z" fill="white"/>
<path d="M9.30096 14.2037C9.30096 12.7268 10.5043 11.5234 11.9812 11.5234C13.4581 11.5234 14.6615 12.7268 14.6615 14.2037C14.6615 15.6806 13.4581 16.884 11.9812 16.884C10.5043 16.884 9.30096 15.6806 9.30096 14.2037Z" fill="#3F2931"/>
<path d="M18.0529 14.2037C18.0529 12.7268 19.2563 11.5234 20.7332 11.5234C22.2101 11.5234 23.4135 12.7268 23.4135 14.2037C23.4135 15.6806 22.2101 16.884 20.7332 16.884C19.2563 16.884 18.0529 15.6806 18.0529 14.2037Z" fill="#3F2931"/>
<path d="M27.8828 6.67978H31.6535C31.6535 3.82445 30.1583 1.51611 27.303 1.51611C25.3119 1.51611 26.7122 2.65387 25.8589 4.31674L6.67018 4.3058C6.67018 3.15711 6.8124 1.51611 4.81039 1.51611C1.95506 1.51611 0.64209 3.82445 0.64209 6.67978H1.8566L4.81039 6.51059C8.0158 9.21275 10.7786 11.0404 16.3853 11.0404C20.9145 11.0404 24.6774 9.39293 27.8828 6.67978Z" fill="url(#paint8_linear_202_621)"/>
<path d="M27.8828 6.67978H31.6535C31.6535 3.82445 30.1583 1.51611 27.303 1.51611C25.3119 1.51611 26.7122 2.65387 25.8589 4.31674L6.67018 4.3058C6.67018 3.15711 6.8124 1.51611 4.81039 1.51611C1.95506 1.51611 0.64209 3.82445 0.64209 6.67978H1.8566L4.81039 6.51059C8.0158 9.21275 10.7786 11.0404 16.3853 11.0404C20.9145 11.0404 24.6774 9.39293 27.8828 6.67978Z" fill="url(#paint9_radial_202_621)"/>
<path d="M27.8828 6.67978H31.6535C31.6535 3.82445 30.1583 1.51611 27.303 1.51611C25.3119 1.51611 26.7122 2.65387 25.8589 4.31674L6.67018 4.3058C6.67018 3.15711 6.8124 1.51611 4.81039 1.51611C1.95506 1.51611 0.64209 3.82445 0.64209 6.67978H1.8566L4.81039 6.51059C8.0158 9.21275 10.7786 11.0404 16.3853 11.0404C20.9145 11.0404 24.6774 9.39293 27.8828 6.67978Z" fill="url(#paint10_radial_202_621)"/>
<path d="M7.72019 4.23731C7.72019 4.23731 7.69831 5.01405 7.73113 5.67044C7.86241 8.04442 9.76597 9.82761 9.76597 9.82761C9.76597 9.82761 8.76995 9.39898 7.94073 9.00098C7.51695 8.79761 7.0028 8.85811 6.67684 9.19681C5.48215 10.4381 4.90265 11.5147 4.90265 11.5147C4.90265 11.5147 3.23173 11.5147 1.61569 10.2105C0.237258 9.00711 0.0512787 7.1911 0.0512787 7.1911C0.0512787 7.1911 -0.692634 2.86981 3.48643 1.40386C6.845 0.233282 7.70925 2.00556 7.70925 3.25271C7.70925 3.49339 7.72019 4.23731 7.72019 4.23731Z" fill="url(#paint11_linear_202_621)"/>
<path d="M7.72019 4.23731C7.72019 4.23731 7.69831 5.01405 7.73113 5.67044C7.86241 8.04442 9.76597 9.82761 9.76597 9.82761C9.76597 9.82761 8.76995 9.39898 7.94073 9.00098C7.51695 8.79761 7.0028 8.85811 6.67684 9.19681C5.48215 10.4381 4.90265 11.5147 4.90265 11.5147C4.90265 11.5147 3.23173 11.5147 1.61569 10.2105C0.237258 9.00711 0.0512787 7.1911 0.0512787 7.1911C0.0512787 7.1911 -0.692634 2.86981 3.48643 1.40386C6.845 0.233282 7.70925 2.00556 7.70925 3.25271C7.70925 3.49339 7.72019 4.23731 7.72019 4.23731Z" fill="url(#paint12_radial_202_621)"/>
<path d="M0.308851 6.83639C1.11754 3.99102 5.08366 5.96002 6.9939 8.21856C7.31465 8.5978 7.64302 8.85896 7.99237 9.02328L7.98613 9.04111C7.95809 9.02776 7.9302 9.01441 7.90249 9.00107C7.47871 8.79769 6.96393 8.85775 6.6409 9.19919C5.49669 9.98052 4.71038 11.0404 4.71038 11.0404C4.71038 11.0404 3.29161 11.0404 1.70189 9.70702C0.73075 8.89254 0.432341 7.86491 0.34073 7.29665C0.295241 7.01453 0.230729 7.11125 0.308851 6.83639Z" fill="url(#paint13_radial_202_621)"/>
<path d="M25.0205 4.23975C25.0205 4.23975 25.0423 5.01649 25.0095 5.67289C24.8782 8.04686 22.9664 9.76256 22.9664 9.76256C22.9664 9.76256 23.9649 9.37375 24.7958 8.9949C25.2235 8.79995 25.7386 8.86012 26.0615 9.20156C27.2343 10.4414 27.7336 11.5148 27.7336 11.5148C27.7336 11.5148 29.4293 11.7008 31.125 10.213C32.5034 9.00956 32.6894 7.19354 32.6894 7.19354C32.6894 7.19354 33.4333 2.87225 29.2542 1.4063C25.8957 0.235723 25.0314 2.008 25.0314 3.25515C25.0314 3.49583 25.0205 4.23975 25.0205 4.23975Z" fill="url(#paint14_linear_202_621)"/>
<path d="M25.0205 4.23975C25.0205 4.23975 25.0423 5.01649 25.0095 5.67289C24.8782 8.04686 22.9664 9.76256 22.9664 9.76256C22.9664 9.76256 23.9649 9.37375 24.7958 8.9949C25.2235 8.79995 25.7386 8.86012 26.0615 9.20156C27.2343 10.4414 27.7336 11.5148 27.7336 11.5148C27.7336 11.5148 29.4293 11.7008 31.125 10.213C32.5034 9.00956 32.6894 7.19354 32.6894 7.19354C32.6894 7.19354 33.4333 2.87225 29.2542 1.4063C25.8957 0.235723 25.0314 2.008 25.0314 3.25515C25.0314 3.49583 25.0205 4.23975 25.0205 4.23975Z" fill="url(#paint15_radial_202_621)"/>
<path d="M32.606 7.02666C31.4259 4.39693 27.5539 5.86081 25.7574 8.11488C25.4089 8.55209 25.0529 8.84644 24.6718 9.02575L24.678 9.04358C24.7061 9.03023 24.734 9.01688 24.7617 9.00354C25.1854 8.80016 25.8228 8.70206 26.1458 9.04358C27.3185 10.2833 27.821 11.331 27.821 11.331C27.821 11.331 29.2363 11.6565 30.932 10.1686C31.6797 9.53631 32.1212 8.76056 32.3728 8.16086C32.6292 7.54963 32.8774 7.6314 32.606 7.02666Z" fill="url(#paint16_radial_202_621)"/>
<g opacity="0.25">
<path d="M26.4605 8.62923C26.8423 8.24747 27.7972 7.21045 28.563 6.11646" stroke="white" stroke-width="1.37481" stroke-linecap="round"/>
</g>
<path d="M16.3919 28.3324C7.74411 28.3324 7.74411 19.6846 7.74411 19.6846H25.0397C25.0397 19.6846 25.0397 28.3324 16.3919 28.3324Z" fill="url(#paint17_radial_202_621)"/>
<path d="M8.70496 20.0318V19.6846H24.0789V20.0318C24.0789 20.636 23.5891 21.1259 22.9849 21.1259H9.79895C9.19476 21.1259 8.70496 20.636 8.70496 20.0318Z" fill="url(#paint18_linear_202_621)"/>
<defs>
<radialGradient id="paint0_radial_202_621" cx="0" cy="0" r="1" gradientUnits="userSpaceOnUse" gradientTransform="translate(25.2783 11.9614) rotate(132.839) scale(35.1701 35.1701)">
<stop stop-color="#FFF478"/>
<stop offset="0.474827" stop-color="#FFB02E"/>
<stop offset="1" stop-color="#F70A8D"/>
</radialGradient>
<radialGradient id="paint1_radial_202_621" cx="0" cy="0" r="1" gradientUnits="userSpaceOnUse" gradientTransform="translate(15.145 -10.8319) rotate(90.4584) scale(32.7681 54.7578)">
<stop offset="0.54644" stop-color="#C47F18"/>
<stop offset="0.807292" stop-color="#C47F18" stop-opacity="0"/>
</radialGradient>
<radialGradient id="paint2_radial_202_621" cx="0" cy="0" r="1" gradientUnits="userSpaceOnUse" gradientTransform="translate(16.3694 15.2438) rotate(90) scale(16.7726)">
<stop offset="0.823911" stop-color="#F59639" stop-opacity="0"/>
<stop offset="1" stop-color="#FF63C4"/>
</radialGradient>
<linearGradient id="paint3_linear_202_621" x1="16.3649" y1="-2.28178" x2="16.3649" y2="7.87592" gradientUnits="userSpaceOnUse">
<stop stop-color="#9C634D"/>
<stop offset="1" stop-color="#63332A"/>
</linearGradient>
<radialGradient id="paint4_radial_202_621" cx="0" cy="0" r="1" gradientUnits="userSpaceOnUse" gradientTransform="translate(13.9901 2.63885) rotate(-48.3665) scale(2.11839 2.43326)">
<stop stop-color="#BA7D72"/>
<stop offset="0.8661" stop-color="#BA7D72" stop-opacity="0"/>
</radialGradient>
<radialGradient id="paint5_radial_202_621" cx="0" cy="0" r="1" gradientUnits="userSpaceOnUse" gradientTransform="translate(20.7608 2.87716) rotate(-48.0997) scale(1.93517 2.22514)">
<stop stop-color="#BA7D72"/>
<stop offset="0.8661" stop-color="#BA7D72" stop-opacity="0"/>
</radialGradient>
<linearGradient id="paint6_linear_202_621" x1="19.8896" y1="2.32265" x2="7.00095" y2="7.82682" gradientUnits="userSpaceOnUse">
<stop stop-color="#A97C50"/>
<stop offset="1" stop-color="#875236"/>
</linearGradient>
<linearGradient id="paint7_linear_202_621" x1="16.32" y1="2.844" x2="16.32" y2="3.51066" gradientUnits="userSpaceOnUse">
<stop stop-color="#C59779"/>
<stop offset="1" stop-color="#C59779" stop-opacity="0"/>
</linearGradient>
<linearGradient id="paint8_linear_202_621" x1="3.00444" y1="5.673" x2="28.0296" y2="5.673" gradientUnits="userSpaceOnUse">
<stop stop-color="#63332A"/>
<stop offset="0.421875" stop-color="#9C634D"/>
<stop offset="0.896175" stop-color="#63332A"/>
</linearGradient>
<radialGradient id="paint9_radial_202_621" cx="0" cy="0" r="1" gradientUnits="userSpaceOnUse" gradientTransform="translate(16.4367 3.00639) rotate(89.3538) scale(9.09442 14.8467)">
<stop offset="0.807292" stop-color="#BA7D72" stop-opacity="0"/>
<stop offset="1" stop-color="#BA7D72"/>
</radialGradient>
<radialGradient id="paint10_radial_202_621" cx="0" cy="0" r="1" gradientUnits="userSpaceOnUse" gradientTransform="translate(16.2008 1.51611) rotate(90.2562) scale(11.8492 17.6915)">
<stop offset="0.697979" stop-color="#A30599" stop-opacity="0"/>
<stop offset="1" stop-color="#BF0AB4"/>
</radialGradient>
<linearGradient id="paint11_linear_202_621" x1="5.46656" y1="2.49346" x2="4.61188" y2="12.0659" gradientUnits="userSpaceOnUse">
<stop stop-color="#9C634D"/>
<stop offset="1" stop-color="#63332A"/>
</linearGradient>
<radialGradient id="paint12_radial_202_621" cx="0" cy="0" r="1" gradientUnits="userSpaceOnUse" gradientTransform="translate(9.76597 7.38225) rotate(169.551) scale(3.01612 8.19858)">
<stop stop-color="#BA7D72"/>
<stop offset="1" stop-color="#BA7D72" stop-opacity="0"/>
</radialGradient>
<radialGradient id="paint13_radial_202_621" cx="0" cy="0" r="1" gradientUnits="userSpaceOnUse" gradientTransform="translate(6.86419 13.8095) rotate(-123.82) scale(8.35355 6.67377)">
<stop stop-color="#BF0AB4"/>
<stop offset="1" stop-color="#A30599" stop-opacity="0"/>
</radialGradient>
<linearGradient id="paint14_linear_202_621" x1="27.2741" y1="2.49591" x2="28.1288" y2="12.0684" gradientUnits="userSpaceOnUse">
<stop stop-color="#9C634D"/>
<stop offset="1" stop-color="#63332A"/>
</linearGradient>
<radialGradient id="paint15_radial_202_621" cx="0" cy="0" r="1" gradientUnits="userSpaceOnUse" gradientTransform="translate(22.9747 7.38471) rotate(10.4489) scale(3.01612 8.19858)">
<stop stop-color="#BA7D72"/>
<stop offset="1" stop-color="#BA7D72" stop-opacity="0"/>
</radialGradient>
<radialGradient id="paint16_radial_202_621" cx="0" cy="0" r="1" gradientUnits="userSpaceOnUse" gradientTransform="translate(25.8001 13.812) rotate(-56.1799) scale(8.35356 6.67377)">
<stop stop-color="#BF0AB4"/>
<stop offset="1" stop-color="#A30599" stop-opacity="0"/>
</radialGradient>
<radialGradient id="paint17_radial_202_621" cx="0" cy="0" r="1" gradientUnits="userSpaceOnUse" gradientTransform="translate(16.3919 30.2541) rotate(-90) scale(10.5695 21.1391)">
<stop stop-color="#F70A8D"/>
<stop offset="1" stop-color="#89029C"/>
</radialGradient>
<linearGradient id="paint18_linear_202_621" x1="16.3919" y1="19.6846" x2="16.3919" y2="21.1259" gradientUnits="userSpaceOnUse">
<stop stop-color="#ECCDFF"/>
<stop offset="1" stop-color="white"/>
</linearGradient>
</defs>
</svg>
