<svg width="30" height="28" viewBox="0 0 30 28" fill="none" xmlns="http://www.w3.org/2000/svg">
<path d="M14.8914 27.7972C24.159 27.7972 28.79 21.5746 28.79 13.8986C28.79 6.22261 24.159 0 14.8914 0C5.62385 0 0.992836 6.22261 0.992836 13.8986C0.992836 21.5746 5.62385 27.7972 14.8914 27.7972Z" fill="#FFB02E"/>
<path d="M8.81508 7.07021C7.99258 6.24772 6.89997 6.24772 6.07747 7.07023C4.9143 8.2334 3.02842 8.2334 1.86523 7.07025C0.702045 5.90707 0.702035 4.02119 1.86521 2.858C5.01406 -0.290874 9.87842 -0.290874 13.0273 2.85794C14.1905 4.02112 14.1905 5.907 13.0273 7.07019C11.8642 8.2334 9.9783 8.2334 8.81508 7.07021Z" fill="#212121"/>
<path d="M20.97 7.07021C21.7924 6.24772 22.8851 6.24772 23.7076 7.07023C24.8707 8.2334 26.7566 8.2334 27.9198 7.07025C29.083 5.90707 29.083 4.02119 27.9198 2.858C24.771 -0.290874 19.9066 -0.290874 16.7578 2.85794C15.5946 4.02112 15.5946 5.907 16.7578 7.07019C17.9209 8.2334 19.8068 8.2334 20.97 7.07021Z" fill="#212121"/>
<path d="M16.7694 25.235C17.3398 25.6245 17.9854 25.8139 18.6311 25.8139C19.7503 25.8139 20.8587 25.2455 21.4612 24.1824C22.2684 22.7508 21.741 20.9403 20.3744 19.9929L16.7156 17.4561C15.5856 16.6772 14.0791 16.6877 12.96 17.4772L9.27964 20.0982C7.66545 21.2455 7.45023 23.5718 8.97831 24.9823C10.1083 26.0349 11.8946 26.0455 13.1537 25.1508L13.3797 24.9928C14.2728 24.3508 15.4888 24.3403 16.3928 24.9718L16.7694 25.235Z" fill="#212121"/>
<path d="M26.3101 11.4175C26.3101 14.1592 24.0876 16.3817 21.346 16.3817C18.6043 16.3817 16.3818 14.1592 16.3818 11.4175C16.3818 8.67593 18.6043 6.45337 21.346 6.45337C24.0876 6.45337 26.3101 8.67593 26.3101 11.4175Z" fill="white"/>
<path d="M13.4057 11.4202C13.4057 14.1618 11.1832 16.3844 8.44153 16.3844C5.69989 16.3844 3.47735 14.1618 3.47735 11.4202C3.47735 8.67862 5.69989 6.45605 8.44153 6.45605C11.1832 6.45605 13.4057 8.67862 13.4057 11.4202Z" fill="white"/>
<path d="M16.8503 19.8567H12.9358C11.4793 19.8567 10.5082 18.3823 11.0948 17.0774C11.0948 17.0774 13.3505 14.4774 13.8562 10.9211H15.9601C16.4659 14.3578 18.6912 17.0873 18.6912 17.0873C19.2779 18.3923 18.2967 19.8567 16.8503 19.8567Z" fill="#FF822D"/>
<path d="M6.94985 11.4176C6.94985 10.0465 8.06078 8.93555 9.43193 8.93555C10.803 8.93555 11.914 10.0465 11.914 11.4176C11.914 12.7887 10.803 13.8997 9.43193 13.8997C8.06078 13.8997 6.94985 12.7887 6.94985 11.4176Z" fill="#402A32"/>
<path d="M17.871 11.4176C17.871 10.0465 18.982 8.93555 20.3531 8.93555C21.7243 8.93555 22.8352 10.0465 22.8352 11.4176C22.8352 12.7887 21.7243 13.8997 20.3531 13.8997C18.982 13.8997 17.871 12.7887 17.871 11.4176Z" fill="#402A32"/>
<path d="M8.4391 5.95679C10.9387 5.95679 13.0459 7.63616 13.6942 9.92813H16.0909C16.7392 7.63616 18.8464 5.95679 21.346 5.95679C23.8455 5.95679 25.9527 7.63616 26.601 9.92813H28.7059C29.2995 9.92813 29.7851 10.3749 29.7851 10.921C29.7851 11.467 29.2995 11.9138 28.7059 11.9138H26.7843C26.5335 14.697 24.1944 16.878 21.346 16.878C18.4975 16.878 16.1584 14.697 15.9076 11.9138H13.8775C13.6267 14.6969 11.2875 16.878 8.4391 16.878C5.59064 16.878 3.25158 14.6969 3.00077 11.9138H0.992835C0.444512 11.9138 0 11.4693 0 10.921C0 10.3726 0.444512 9.92813 0.992835 9.92813H3.18405C3.8323 7.63616 5.93959 5.95679 8.4391 5.95679ZM3.97134 11.4174C3.97134 13.8849 5.97163 15.8851 8.4391 15.8851C10.9066 15.8851 12.9069 13.8849 12.9069 11.4174C12.9069 8.94989 10.9066 6.94962 8.4391 6.94962C5.97163 6.94962 3.97134 8.94989 3.97134 11.4174ZM16.8854 11.4174C16.8854 13.8808 18.8825 15.8779 21.346 15.8779C23.8094 15.8779 25.8065 13.8808 25.8065 11.4174C25.8065 8.95396 23.8094 6.9569 21.346 6.9569C18.8825 6.9569 16.8854 8.95396 16.8854 11.4174Z" fill="#402A32"/>
</svg>
