<svg width="33" height="33" viewBox="0 0 33 33" fill="none" xmlns="http://www.w3.org/2000/svg">
<path d="M4.80336 23.3951C2.95157 24.3927 1.29249 24.8775 0.523691 24.1087C-1.7564 21.8286 4.03347 13.7835 5.92591 11.6152C5.98304 11.3429 6.03821 11.0821 6.09055 10.8354L6.09716 10.8366L4.73792 17.8054C4.51041 18.8992 4.32266 21.1812 4.80336 23.3951Z" fill="url(#paint0_radial_202_681)"/>
<path d="M4.80336 23.3951C2.95157 24.3927 1.29249 24.8775 0.523691 24.1087C-1.7564 21.8286 4.03347 13.7835 5.92591 11.6152C5.98304 11.3429 6.03821 11.0821 6.09055 10.8354L6.09716 10.8366L4.73792 17.8054C4.51041 18.8992 4.32266 21.1812 4.80336 23.3951Z" fill="url(#paint1_linear_202_681)"/>
<path d="M4.80336 23.3951C2.95157 24.3927 1.29249 24.8775 0.523691 24.1087C-1.7564 21.8286 4.03347 13.7835 5.92591 11.6152C5.98304 11.3429 6.03821 11.0821 6.09055 10.8354L6.09716 10.8366L4.73792 17.8054C4.51041 18.8992 4.32266 21.1812 4.80336 23.3951Z" fill="url(#paint2_radial_202_681)"/>
<path d="M27.9429 23.3949C29.7946 24.3925 31.4538 24.8773 32.2225 24.1084C34.5026 21.8284 28.6318 13.7833 26.7394 11.615C26.8365 12.1578 27.808 16.778 28.0082 17.8052C28.2358 18.899 28.4236 21.181 27.9429 23.3949Z" fill="url(#paint3_linear_202_681)"/>
<path d="M27.9429 23.3949C29.7946 24.3925 31.4538 24.8773 32.2225 24.1084C34.5026 21.8284 28.6318 13.7833 26.7394 11.615C26.8365 12.1578 27.808 16.778 28.0082 17.8052C28.2358 18.899 28.4236 21.181 27.9429 23.3949Z" fill="url(#paint4_linear_202_681)"/>
<path d="M32.1988 22.1074C30.6978 18.1629 27.602 14.0284 26.4211 12.5837L25.6876 17.1577C26.8537 17.8437 29.7678 20.465 31.5934 22.4436C31.8507 22.7227 32.3339 22.4623 32.1988 22.1074Z" fill="url(#paint5_linear_202_681)" fill-opacity="0.75"/>
<path d="M16.5161 0C21.2926 0 25.7705 4.37833 26.1686 8.70711C26.2065 9.1197 26.4107 10.0751 26.6782 11.3006L28.0407 17.8051C28.2685 18.8999 28.4564 21.1853 27.9738 23.4012C27.6415 24.7798 27.0473 26.1046 26.2441 27.3023L25.8797 31.5387C25.8797 31.5387 18.7918 32.811 16.221 32.7745C13.7576 32.739 6.94074 31.5387 6.94074 31.5387L6.51222 27.3023C5.7224 26.11 5.13659 24.7854 4.80485 23.3939L4.80341 23.3947C4.3227 21.1809 4.51046 18.8988 4.73798 17.8051L6.09721 10.8362L6.0906 10.835L6.19609 10.3388C6.35985 9.5693 6.48342 8.98866 6.53194 8.70711C7.29484 4.27892 11.1758 0 16.5161 0Z" fill="url(#paint6_linear_202_681)"/>
<path d="M16.5161 0C21.2926 0 25.7705 4.37833 26.1686 8.70711C26.2065 9.1197 26.4107 10.0751 26.6782 11.3006L28.0407 17.8051C28.2685 18.8999 28.4564 21.1853 27.9738 23.4012C27.6415 24.7798 27.0473 26.1046 26.2441 27.3023L25.8797 31.5387C25.8797 31.5387 18.7918 32.811 16.221 32.7745C13.7576 32.739 6.94074 31.5387 6.94074 31.5387L6.51222 27.3023C5.7224 26.11 5.13659 24.7854 4.80485 23.3939L4.80341 23.3947C4.3227 21.1809 4.51046 18.8988 4.73798 17.8051L6.09721 10.8362L6.0906 10.835L6.19609 10.3388C6.35985 9.5693 6.48342 8.98866 6.53194 8.70711C7.29484 4.27892 11.1758 0 16.5161 0Z" fill="url(#paint7_radial_202_681)"/>
<path d="M16.5161 0C21.2926 0 25.7705 4.37833 26.1686 8.70711C26.2065 9.1197 26.4107 10.0751 26.6782 11.3006L28.0407 17.8051C28.2685 18.8999 28.4564 21.1853 27.9738 23.4012C27.6415 24.7798 27.0473 26.1046 26.2441 27.3023L25.8797 31.5387C25.8797 31.5387 18.7918 32.811 16.221 32.7745C13.7576 32.739 6.94074 31.5387 6.94074 31.5387L6.51222 27.3023C5.7224 26.11 5.13659 24.7854 4.80485 23.3939L4.80341 23.3947C4.3227 21.1809 4.51046 18.8988 4.73798 17.8051L6.09721 10.8362L6.0906 10.835L6.19609 10.3388C6.35985 9.5693 6.48342 8.98866 6.53194 8.70711C7.29484 4.27892 11.1758 0 16.5161 0Z" fill="url(#paint8_radial_202_681)"/>
<path d="M16.5161 0C21.2926 0 25.7705 4.37833 26.1686 8.70711C26.2065 9.1197 26.4107 10.0751 26.6782 11.3006L28.0407 17.8051C28.2685 18.8999 28.4564 21.1853 27.9738 23.4012C27.6415 24.7798 27.0473 26.1046 26.2441 27.3023L25.8797 31.5387C25.8797 31.5387 18.7918 32.811 16.221 32.7745C13.7576 32.739 6.94074 31.5387 6.94074 31.5387L6.51222 27.3023C5.7224 26.11 5.13659 24.7854 4.80485 23.3939L4.80341 23.3947C4.3227 21.1809 4.51046 18.8988 4.73798 17.8051L6.09721 10.8362L6.0906 10.835L6.19609 10.3388C6.35985 9.5693 6.48342 8.98866 6.53194 8.70711C7.29484 4.27892 11.1758 0 16.5161 0Z" fill="url(#paint9_radial_202_681)"/>
<path d="M16.5161 0C21.2926 0 25.7705 4.37833 26.1686 8.70711C26.2065 9.1197 26.4107 10.0751 26.6782 11.3006L28.0407 17.8051C28.2685 18.8999 28.4564 21.1853 27.9738 23.4012C27.6415 24.7798 27.0473 26.1046 26.2441 27.3023L25.8797 31.5387C25.8797 31.5387 18.7918 32.811 16.221 32.7745C13.7576 32.739 6.94074 31.5387 6.94074 31.5387L6.51222 27.3023C5.7224 26.11 5.13659 24.7854 4.80485 23.3939L4.80341 23.3947C4.3227 21.1809 4.51046 18.8988 4.73798 17.8051L6.09721 10.8362L6.0906 10.835L6.19609 10.3388C6.35985 9.5693 6.48342 8.98866 6.53194 8.70711C7.29484 4.27892 11.1758 0 16.5161 0Z" fill="url(#paint10_radial_202_681)"/>
<path d="M23.0821 13.9173C23.7534 12.792 24.1256 11.3597 24.1256 9.59966C24.1256 7.75199 23.2074 5.95983 21.9836 4.63398C20.7642 3.31281 19.2066 2.41813 17.8927 2.41813C17.6476 2.41813 17.488 2.55808 17.3825 2.72748C17.2849 2.88409 17.2186 3.08847 17.1583 3.27444L17.1541 3.2873C17.0754 3.5298 17.0021 3.7509 16.8861 3.91464C16.7791 4.06592 16.6408 4.16132 16.415 4.16132C16.1837 4.16132 16.0346 4.06069 15.916 3.89966C15.7893 3.72791 15.7055 3.4977 15.6174 3.25183L15.6131 3.23979C15.5485 3.05928 15.4787 2.86424 15.3842 2.71543C15.2841 2.55767 15.134 2.41797 14.9041 2.41797C13.6003 2.41797 12.0305 3.28906 10.7957 4.59983C9.5566 5.91522 8.62151 7.7078 8.62151 9.59966C8.62151 11.3891 8.99958 12.8134 9.66113 13.9209C7.78522 15.6735 6.61435 18.1538 6.61435 20.904C6.61435 26.2192 10.986 30.5239 16.3736 30.5239C21.761 30.5239 26.1328 26.2192 26.1328 20.904C26.1328 18.152 24.9603 15.6702 23.0821 13.9173Z" stroke="url(#paint11_linear_202_681)" stroke-width="0.867625"/>
<path d="M22.8609 13.9483C23.5585 12.838 23.953 11.3992 23.953 9.59967C23.953 6.0152 20.3832 2.59074 17.8927 2.59074C17.5616 2.59074 17.4454 2.94893 17.3183 3.34058C17.1651 3.81292 16.9959 4.33393 16.415 4.33393C15.8217 4.33393 15.6268 3.79018 15.4549 3.31002C15.319 2.93042 15.1974 2.59058 14.9041 2.59058C12.4302 2.59058 8.79412 5.92779 8.79412 9.59967C8.79412 11.4305 9.19524 12.8603 9.88248 13.9517C7.97936 15.6782 6.78696 18.1538 6.78696 20.904C6.78696 26.1216 11.079 30.3513 16.3736 30.3513C21.668 30.3513 25.9602 26.1216 25.9602 20.904C25.9602 18.152 24.7662 15.6749 22.8609 13.9483Z" fill="url(#paint12_linear_202_681)"/>
<path d="M22.8609 13.9483C23.5585 12.838 23.953 11.3992 23.953 9.59967C23.953 6.0152 20.3832 2.59074 17.8927 2.59074C17.5616 2.59074 17.4454 2.94893 17.3183 3.34058C17.1651 3.81292 16.9959 4.33393 16.415 4.33393C15.8217 4.33393 15.6268 3.79018 15.4549 3.31002C15.319 2.93042 15.1974 2.59058 14.9041 2.59058C12.4302 2.59058 8.79412 5.92779 8.79412 9.59967C8.79412 11.4305 9.19524 12.8603 9.88248 13.9517C7.97936 15.6782 6.78696 18.1538 6.78696 20.904C6.78696 26.1216 11.079 30.3513 16.3736 30.3513C21.668 30.3513 25.9602 26.1216 25.9602 20.904C25.9602 18.152 24.7662 15.6749 22.8609 13.9483Z" fill="url(#paint13_radial_202_681)"/>
<path d="M12.8126 15.556L20.0348 11.6292L12.8126 11.2463V15.556Z" fill="url(#paint14_linear_202_681)"/>
<path d="M12.8126 15.556L20.0348 11.6292L12.8126 11.2463V15.556Z" fill="url(#paint15_linear_202_681)"/>
<path d="M12.8126 11.629H20.0079C20.0079 9.64211 18.3971 8.03125 16.4101 8.03125C14.4233 8.03125 12.8126 9.64211 12.8126 11.629Z" fill="#F97725"/>
<path d="M12.8126 11.629H20.0079C20.0079 9.64211 18.3971 8.03125 16.4101 8.03125C14.4233 8.03125 12.8126 9.64211 12.8126 11.629Z" fill="url(#paint16_radial_202_681)"/>
<path d="M12.8126 11.629H20.0079C20.0079 9.64211 18.3971 8.03125 16.4101 8.03125C14.4233 8.03125 12.8126 9.64211 12.8126 11.629Z" fill="url(#paint17_radial_202_681)"/>
<path d="M12.8126 11.629H20.0079C20.0079 9.64211 18.3971 8.03125 16.4101 8.03125C14.4233 8.03125 12.8126 9.64211 12.8126 11.629Z" fill="url(#paint18_linear_202_681)"/>
<path d="M14.8244 5.78755C14.8244 5.44199 14.5442 5.16187 14.1987 5.16187C13.8531 5.16187 13.573 5.44199 13.573 5.78755V6.80158C13.573 7.14714 13.8531 7.42726 14.1987 7.42726C14.5442 7.42726 14.8244 7.14714 14.8244 6.80158V5.78755Z" fill="#B5AABA"/>
<path d="M18.9668 5.78755C18.9668 5.44199 18.6867 5.16187 18.3411 5.16187C17.9956 5.16187 17.7155 5.44199 17.7155 5.78755V6.80158C17.7155 7.14714 17.9956 7.42726 18.3411 7.42726C18.6867 7.42726 18.9668 7.14714 18.9668 6.80158V5.78755Z" fill="#B5AABA"/>
<path d="M14.9647 5.67964C14.9647 5.33408 14.6845 5.05396 14.339 5.05396C13.9934 5.05396 13.7133 5.33408 13.7133 5.67964V6.69367C13.7133 7.03923 13.9934 7.31935 14.339 7.31935C14.6845 7.31935 14.9647 7.03923 14.9647 6.69367V5.67964Z" fill="url(#paint19_linear_202_681)"/>
<path d="M14.9647 5.67964C14.9647 5.33408 14.6845 5.05396 14.339 5.05396C13.9934 5.05396 13.7133 5.33408 13.7133 5.67964V6.69367C13.7133 7.03923 13.9934 7.31935 14.339 7.31935C14.6845 7.31935 14.9647 7.03923 14.9647 6.69367V5.67964Z" fill="url(#paint20_linear_202_681)"/>
<path d="M14.9647 5.67964C14.9647 5.33408 14.6845 5.05396 14.339 5.05396C13.9934 5.05396 13.7133 5.33408 13.7133 5.67964V6.69367C13.7133 7.03923 13.9934 7.31935 14.339 7.31935C14.6845 7.31935 14.9647 7.03923 14.9647 6.69367V5.67964Z" fill="url(#paint21_radial_202_681)"/>
<path d="M19.1071 5.67964C19.1071 5.33408 18.827 5.05396 18.4814 5.05396C18.1359 5.05396 17.8557 5.33408 17.8557 5.67964V6.69367C17.8557 7.03923 18.1359 7.31935 18.4814 7.31935C18.827 7.31935 19.1071 7.03923 19.1071 6.69367V5.67964Z" fill="url(#paint22_linear_202_681)"/>
<path d="M19.1071 5.67964C19.1071 5.33408 18.827 5.05396 18.4814 5.05396C18.1359 5.05396 17.8557 5.33408 17.8557 5.67964V6.69367C17.8557 7.03923 18.1359 7.31935 18.4814 7.31935C18.827 7.31935 19.1071 7.03923 19.1071 6.69367V5.67964Z" fill="url(#paint23_linear_202_681)"/>
<path d="M19.1071 5.67964C19.1071 5.33408 18.827 5.05396 18.4814 5.05396C18.1359 5.05396 17.8557 5.33408 17.8557 5.67964V6.69367C17.8557 7.03923 18.1359 7.31935 18.4814 7.31935C18.827 7.31935 19.1071 7.03923 19.1071 6.69367V5.67964Z" fill="url(#paint24_radial_202_681)"/>
<path d="M18.8698 5.5815C18.8698 5.45936 18.7708 5.36035 18.6487 5.36035C18.5265 5.36035 18.4275 5.45936 18.4275 5.5815V6.79187C18.4275 6.914 18.5265 7.01301 18.6487 7.01301C18.7708 7.01301 18.8698 6.914 18.8698 6.79187V5.5815Z" fill="#76676A"/>
<path d="M14.7057 5.5815C14.7057 5.45936 14.6067 5.36035 14.4845 5.36035C14.3624 5.36035 14.2634 5.45936 14.2634 5.5815V6.79187C14.2634 6.914 14.3624 7.01301 14.4845 7.01301C14.6067 7.01301 14.7057 6.914 14.7057 6.79187V5.5815Z" fill="#76676A"/>
<path d="M16.4102 32.7755L27.1556 32.7757C27.449 32.7757 27.6881 32.5374 27.6746 32.2443C27.5918 30.4449 27.0908 28.7544 26.2667 27.2681C24.1376 30.4645 20.5211 32.7634 16.4102 32.7755Z" fill="#FF9D63"/>
<path d="M16.4102 32.7755L27.1556 32.7757C27.449 32.7757 27.6881 32.5374 27.6746 32.2443C27.5918 30.4449 27.0908 28.7544 26.2667 27.2681C24.1376 30.4645 20.5211 32.7634 16.4102 32.7755Z" fill="url(#paint25_linear_202_681)"/>
<path d="M16.4102 32.7755L27.1556 32.7757C27.449 32.7757 27.6881 32.5374 27.6746 32.2443C27.5918 30.4449 27.0908 28.7544 26.2667 27.2681C24.1376 30.4645 20.5211 32.7634 16.4102 32.7755Z" fill="url(#paint26_radial_202_681)"/>
<path d="M16.4102 32.7755L27.1556 32.7757C27.449 32.7757 27.6881 32.5374 27.6746 32.2443C27.5918 30.4449 27.0908 28.7544 26.2667 27.2681C24.1376 30.4645 20.5211 32.7634 16.4102 32.7755Z" fill="url(#paint27_radial_202_681)"/>
<path d="M16.4102 32.7755L27.1556 32.7757C27.449 32.7757 27.6881 32.5374 27.6746 32.2443C27.5918 30.4449 27.0908 28.7544 26.2667 27.2681C24.1376 30.4645 20.5211 32.7634 16.4102 32.7755Z" fill="url(#paint28_linear_202_681)"/>
<path d="M16.3734 32.7755L5.62814 32.7757C5.33469 32.7757 5.09554 32.5374 5.10903 32.2443C5.19183 30.4449 5.69291 28.7544 6.5169 27.2681C8.64593 30.4645 12.2624 32.7634 16.3734 32.7755Z" fill="#DD4533"/>
<path d="M16.3734 32.7755L5.62814 32.7757C5.33469 32.7757 5.09554 32.5374 5.10903 32.2443C5.19183 30.4449 5.69291 28.7544 6.5169 27.2681C8.64593 30.4645 12.2624 32.7634 16.3734 32.7755Z" fill="url(#paint29_linear_202_681)"/>
<path d="M16.3734 32.7755L5.62814 32.7757C5.33469 32.7757 5.09554 32.5374 5.10903 32.2443C5.19183 30.4449 5.69291 28.7544 6.5169 27.2681C8.64593 30.4645 12.2624 32.7634 16.3734 32.7755Z" fill="url(#paint30_linear_202_681)"/>
<defs>
<radialGradient id="paint0_radial_202_681" cx="0" cy="0" r="1" gradientUnits="userSpaceOnUse" gradientTransform="translate(2.81771 21.9911) rotate(-62.4824) scale(8.12539 4.66224)">
<stop stop-color="#652998"/>
<stop offset="1" stop-color="#501E65"/>
</radialGradient>
<linearGradient id="paint1_linear_202_681" x1="1.17799" y1="25.4431" x2="4.32798" y2="21.0418" gradientUnits="userSpaceOnUse">
<stop stop-color="#462096"/>
<stop offset="1" stop-color="#462096" stop-opacity="0"/>
</linearGradient>
<radialGradient id="paint2_radial_202_681" cx="0" cy="0" r="1" gradientUnits="userSpaceOnUse" gradientTransform="translate(7.13277 17.6614) rotate(130.427) scale(10.0809 4.1758)">
<stop offset="0.786291" stop-color="#493659" stop-opacity="0"/>
<stop offset="1" stop-color="#493659"/>
</radialGradient>
<linearGradient id="paint3_linear_202_681" x1="29.74" y1="11.615" x2="29.74" y2="24.487" gradientUnits="userSpaceOnUse">
<stop stop-color="#814690"/>
<stop offset="1" stop-color="#511691"/>
</linearGradient>
<linearGradient id="paint4_linear_202_681" x1="32.0307" y1="25.486" x2="29.188" y2="22.1771" gradientUnits="userSpaceOnUse">
<stop stop-color="#462096"/>
<stop offset="1" stop-color="#462096" stop-opacity="0"/>
</linearGradient>
<linearGradient id="paint5_linear_202_681" x1="33.4311" y1="23.8029" x2="27.1978" y2="12.9289" gradientUnits="userSpaceOnUse">
<stop stop-color="#8760B5"/>
<stop offset="1" stop-color="#8760B5" stop-opacity="0"/>
</linearGradient>
<linearGradient id="paint6_linear_202_681" x1="16.3893" y1="-0.447689" x2="16.3893" y2="32.7753" gradientUnits="userSpaceOnUse">
<stop stop-color="#57275F"/>
<stop offset="1" stop-color="#4C20A3"/>
</linearGradient>
<radialGradient id="paint7_radial_202_681" cx="0" cy="0" r="1" gradientUnits="userSpaceOnUse" gradientTransform="translate(24.6951 2.65915) rotate(138.39) scale(17.5447 25.4847)">
<stop stop-color="#813687"/>
<stop offset="1" stop-color="#813687" stop-opacity="0"/>
</radialGradient>
<radialGradient id="paint8_radial_202_681" cx="0" cy="0" r="1" gradientUnits="userSpaceOnUse" gradientTransform="translate(16.3893 36.8344) rotate(-90) scale(8.02601 9.9455)">
<stop stop-color="#552EAA"/>
<stop offset="1" stop-color="#552EAA" stop-opacity="0"/>
</radialGradient>
<radialGradient id="paint9_radial_202_681" cx="0" cy="0" r="1" gradientUnits="userSpaceOnUse" gradientTransform="translate(17.9205 2.7023) rotate(38.7966) scale(1.41182 1.36797)">
<stop stop-color="#884790"/>
<stop offset="1" stop-color="#884790" stop-opacity="0"/>
</radialGradient>
<radialGradient id="paint10_radial_202_681" cx="0" cy="0" r="1" gradientUnits="userSpaceOnUse" gradientTransform="translate(22.0197 6.62898) rotate(-35.3112) scale(2.53819 3.34954)">
<stop stop-color="#884790"/>
<stop offset="1" stop-color="#884790" stop-opacity="0"/>
</radialGradient>
<linearGradient id="paint11_linear_202_681" x1="16.3736" y1="2.59057" x2="16.3736" y2="30.3513" gradientUnits="userSpaceOnUse">
<stop stop-color="#60166F"/>
<stop offset="1" stop-color="#51309A"/>
</linearGradient>
<linearGradient id="paint12_linear_202_681" x1="16.3736" y1="4.29898" x2="16.3736" y2="30.3513" gradientUnits="userSpaceOnUse">
<stop stop-color="#D4C5DF"/>
<stop offset="1" stop-color="#EFC3FF"/>
</linearGradient>
<radialGradient id="paint13_radial_202_681" cx="0" cy="0" r="1" gradientUnits="userSpaceOnUse" gradientTransform="translate(24.4363 12.4976) rotate(171.69) scale(15.5247 18.5408)">
<stop stop-color="#FFF6FF"/>
<stop offset="1" stop-color="#FFF6FF" stop-opacity="0"/>
</radialGradient>
<linearGradient id="paint14_linear_202_681" x1="19.517" y1="11.6292" x2="12.8126" y2="14.2183" gradientUnits="userSpaceOnUse">
<stop stop-color="#E0B4E2"/>
<stop offset="1" stop-color="#E0B4E2" stop-opacity="0"/>
</linearGradient>
<linearGradient id="paint15_linear_202_681" x1="16.4237" y1="10.7716" x2="16.4237" y2="12.282" gradientUnits="userSpaceOnUse">
<stop stop-color="#D9A7E6"/>
<stop offset="1" stop-color="#D9A7E6" stop-opacity="0"/>
</linearGradient>
<radialGradient id="paint16_radial_202_681" cx="0" cy="0" r="1" gradientUnits="userSpaceOnUse" gradientTransform="translate(18.8698 11.629) rotate(180) scale(3.79725 3.7223)">
<stop stop-color="#FFA864"/>
<stop offset="1" stop-color="#FFA864" stop-opacity="0"/>
</radialGradient>
<radialGradient id="paint17_radial_202_681" cx="0" cy="0" r="1" gradientUnits="userSpaceOnUse" gradientTransform="translate(16.928 7.27622) rotate(106.025) scale(2.65723 2.67288)">
<stop stop-color="#FFA864"/>
<stop offset="1" stop-color="#FFA864" stop-opacity="0"/>
</radialGradient>
<linearGradient id="paint18_linear_202_681" x1="16.4101" y1="11.9796" x2="16.4101" y2="11.1598" gradientUnits="userSpaceOnUse">
<stop offset="0.136364" stop-color="#FF5762"/>
<stop offset="1" stop-color="#FF5762" stop-opacity="0"/>
</linearGradient>
<linearGradient id="paint19_linear_202_681" x1="14.9647" y1="6.04512" x2="14.2403" y2="6.04512" gradientUnits="userSpaceOnUse">
<stop offset="0.225" stop-color="#594C4F"/>
<stop offset="1" stop-color="#392833"/>
</linearGradient>
<linearGradient id="paint20_linear_202_681" x1="15.1602" y1="7.21315" x2="15.1602" y2="6.13391" gradientUnits="userSpaceOnUse">
<stop stop-color="#492847"/>
<stop offset="1" stop-color="#552D52" stop-opacity="0"/>
</linearGradient>
<radialGradient id="paint21_radial_202_681" cx="0" cy="0" r="1" gradientUnits="userSpaceOnUse" gradientTransform="translate(14.4736 6.36506) rotate(-106.254) scale(1.33525 1.56131)">
<stop offset="0.813951" stop-color="#594C4F" stop-opacity="0"/>
<stop offset="1" stop-color="#594C4F"/>
</radialGradient>
<linearGradient id="paint22_linear_202_681" x1="19.1072" y1="6.04512" x2="18.3828" y2="6.04512" gradientUnits="userSpaceOnUse">
<stop offset="0.225" stop-color="#594C4F"/>
<stop offset="1" stop-color="#392833"/>
</linearGradient>
<linearGradient id="paint23_linear_202_681" x1="19.3027" y1="7.21315" x2="19.3027" y2="6.13391" gradientUnits="userSpaceOnUse">
<stop stop-color="#492847"/>
<stop offset="1" stop-color="#552D52" stop-opacity="0"/>
</linearGradient>
<radialGradient id="paint24_radial_202_681" cx="0" cy="0" r="1" gradientUnits="userSpaceOnUse" gradientTransform="translate(18.616 6.36506) rotate(-106.254) scale(1.33525 1.56131)">
<stop offset="0.813951" stop-color="#594C4F" stop-opacity="0"/>
<stop offset="1" stop-color="#594C4F"/>
</radialGradient>
<linearGradient id="paint25_linear_202_681" x1="22.0427" y1="33.5549" x2="22.0427" y2="31.6563" gradientUnits="userSpaceOnUse">
<stop offset="0.136364" stop-color="#FF5762"/>
<stop offset="1" stop-color="#FF5762" stop-opacity="0"/>
</linearGradient>
<radialGradient id="paint26_radial_202_681" cx="0" cy="0" r="1" gradientUnits="userSpaceOnUse" gradientTransform="translate(17.8342 31.4837) scale(5.86848 12.0031)">
<stop offset="0.136364" stop-color="#FF5762"/>
<stop offset="1" stop-color="#FF5762" stop-opacity="0"/>
</radialGradient>
<radialGradient id="paint27_radial_202_681" cx="0" cy="0" r="1" gradientUnits="userSpaceOnUse" gradientTransform="translate(20.0348 31.4837) scale(11.6507 11.3209)">
<stop offset="0.587037" stop-color="#FF5762" stop-opacity="0"/>
<stop offset="1" stop-color="#FF5762"/>
</radialGradient>
<linearGradient id="paint28_linear_202_681" x1="22.0427" y1="33.1328" x2="22.0427" y2="32.1784" gradientUnits="userSpaceOnUse">
<stop stop-color="#F15CC7"/>
<stop offset="0.828473" stop-color="#F15CC7" stop-opacity="0"/>
</linearGradient>
<linearGradient id="paint29_linear_202_681" x1="10.7409" y1="33.1328" x2="10.7409" y2="32.1784" gradientUnits="userSpaceOnUse">
<stop stop-color="#F15CC7"/>
<stop offset="0.828473" stop-color="#F15CC7" stop-opacity="0"/>
</linearGradient>
<linearGradient id="paint30_linear_202_681" x1="17.1438" y1="32.1784" x2="10.1317" y2="32.1784" gradientUnits="userSpaceOnUse">
<stop stop-color="#F15CC7"/>
<stop offset="1" stop-color="#F15CC7" stop-opacity="0"/>
</linearGradient>
</defs>
</svg>
