<svg width="28" height="26" viewBox="0 0 28 26" fill="none" xmlns="http://www.w3.org/2000/svg">
<path d="M13.8935 7.77442C13.7212 8.44362 13.136 8.94285 12.4444 9.28868C10.4838 9.96708 8.93505 10.6196 7.65356 11.2531C6.5191 11.8139 6.53005 13.5862 7.6682 14.1396C8.99805 14.786 10.6676 15.4061 12.5219 16.1411C13.0206 16.3388 13.7252 16.8972 13.9005 17.5836C14.441 19.6987 15.1763 21.9378 15.9861 24.0048C16.6146 25.6094 18.1686 25.6082 18.8003 24.0048C19.6203 21.9234 20.2432 19.6751 20.9463 17.536C21.1145 16.8755 21.6127 16.3533 22.2552 16.1257C23.9914 15.5106 25.665 14.8165 27.0292 14.2157C28.3032 13.6546 28.3295 11.8328 27.0715 11.2368C25.728 10.6004 24.0569 9.86344 22.2468 9.20566C21.6097 8.9742 21.1196 8.48559 20.8931 7.79211C20.1301 5.4553 19.6467 3.47412 18.8361 1.41668C18.2044 -0.186711 16.5462 -0.137365 15.9145 1.46603C15.107 3.51587 14.5432 5.55622 13.8935 7.77442Z" fill="url(#paint0_linear_201_11)"/>
<path d="M13.8935 7.77442C13.7212 8.44362 13.136 8.94285 12.4444 9.28868C10.4838 9.96708 8.93505 10.6196 7.65356 11.2531C6.5191 11.8139 6.53005 13.5862 7.6682 14.1396C8.99805 14.786 10.6676 15.4061 12.5219 16.1411C13.0206 16.3388 13.7252 16.8972 13.9005 17.5836C14.441 19.6987 15.1763 21.9378 15.9861 24.0048C16.6146 25.6094 18.1686 25.6082 18.8003 24.0048C19.6203 21.9234 20.2432 19.6751 20.9463 17.536C21.1145 16.8755 21.6127 16.3533 22.2552 16.1257C23.9914 15.5106 25.665 14.8165 27.0292 14.2157C28.3032 13.6546 28.3295 11.8328 27.0715 11.2368C25.728 10.6004 24.0569 9.86344 22.2468 9.20566C21.6097 8.9742 21.1196 8.48559 20.8931 7.79211C20.1301 5.4553 19.6467 3.47412 18.8361 1.41668C18.2044 -0.186711 16.5462 -0.137365 15.9145 1.46603C15.107 3.51587 14.5432 5.55622 13.8935 7.77442Z" fill="url(#paint1_linear_201_11)"/>
<path d="M5.75023 2.42548C5.69476 2.64087 5.50645 2.80155 5.28384 2.91285C4.65278 3.13119 4.15432 3.34123 3.74186 3.54513C3.37672 3.72563 3.38025 4.29605 3.74657 4.47413C4.17458 4.68221 4.71197 4.88178 5.30879 5.11837C5.46926 5.18198 5.69604 5.3617 5.75249 5.58262C5.92645 6.26338 6.16313 6.98402 6.42374 7.64939C6.62606 8.1658 7.12622 8.1654 7.32952 7.64939C7.59343 6.97947 7.79393 6.25581 8.02023 5.56732C8.07443 5.35474 8.2347 5.18665 8.44149 5.1134C9.00027 4.91545 9.53893 4.69205 9.97809 4.49865C10.3881 4.31805 10.3965 3.73171 9.99164 3.53989C9.55926 3.33504 9.02141 3.09783 8.43876 2.88614C8.23369 2.81162 8.07594 2.65438 8.00311 2.43118C7.75753 1.67906 7.60193 1.0414 7.34104 0.379194C7.13773 -0.136866 6.60403 -0.120981 6.40072 0.39508C6.1408 1.05484 5.95934 1.71154 5.75023 2.42548Z" fill="url(#paint2_linear_201_11)"/>
<path d="M5.75023 2.42548C5.69476 2.64087 5.50645 2.80155 5.28384 2.91285C4.65278 3.13119 4.15432 3.34123 3.74186 3.54513C3.37672 3.72563 3.38025 4.29605 3.74657 4.47413C4.17458 4.68221 4.71197 4.88178 5.30879 5.11837C5.46926 5.18198 5.69604 5.3617 5.75249 5.58262C5.92645 6.26338 6.16313 6.98402 6.42374 7.64939C6.62606 8.1658 7.12622 8.1654 7.32952 7.64939C7.59343 6.97947 7.79393 6.25581 8.02023 5.56732C8.07443 5.35474 8.2347 5.18665 8.44149 5.1134C9.00027 4.91545 9.53893 4.69205 9.97809 4.49865C10.3881 4.31805 10.3965 3.73171 9.99164 3.53989C9.55926 3.33504 9.02141 3.09783 8.43876 2.88614C8.23369 2.81162 8.07594 2.65438 8.00311 2.43118C7.75753 1.67906 7.60193 1.0414 7.34104 0.379194C7.13773 -0.136866 6.60403 -0.120981 6.40072 0.39508C6.1408 1.05484 5.95934 1.71154 5.75023 2.42548Z" fill="url(#paint3_linear_201_11)"/>
<path d="M3.17979 16.8344C3.10245 17.1348 2.83985 17.3588 2.52944 17.5141C1.64945 17.8185 0.954367 18.1114 0.379222 18.3957C-0.129942 18.6474 -0.125028 19.4428 0.385785 19.6911C0.98263 19.9814 1.73198 20.2596 2.56422 20.5895C2.78799 20.6782 3.10422 20.9288 3.18294 21.2368C3.42552 22.1862 3.75557 23.1912 4.11898 24.1188C4.4011 24.839 5.09856 24.8385 5.38205 24.1188C5.75006 23.1847 6.02964 22.1756 6.34519 21.2155C6.42071 20.9191 6.64428 20.6847 6.93261 20.5826C7.71186 20.3066 8.46303 19.995 9.0753 19.7253C9.64703 19.4735 9.65886 18.6559 9.09421 18.3884C8.49134 18.1028 7.74129 17.772 6.92888 17.4767C6.64293 17.3729 6.42295 17.1536 6.32133 16.8423C5.97888 15.7935 5.7619 14.9044 5.3981 13.981C5.11459 13.2613 4.37037 13.2834 4.08686 14.0031C3.72442 14.9231 3.47138 15.8388 3.17979 16.8344Z" fill="url(#paint4_radial_201_11)"/>
<defs>
<linearGradient id="paint0_linear_201_11" x1="24.3164" y1="7.94157" x2="13.1161" y2="19.7321" gradientUnits="userSpaceOnUse">
<stop stop-color="#FFCF5A"/>
<stop offset="1" stop-color="#FEA254"/>
</linearGradient>
<linearGradient id="paint1_linear_201_11" x1="12.8141" y1="26.1622" x2="18.9195" y2="13.2835" gradientUnits="userSpaceOnUse">
<stop stop-color="#FF886D"/>
<stop offset="1" stop-color="#FF886D" stop-opacity="0"/>
</linearGradient>
<linearGradient id="paint2_linear_201_11" x1="9.10493" y1="2.47926" x2="5.50003" y2="6.27416" gradientUnits="userSpaceOnUse">
<stop stop-color="#FFDA72"/>
<stop offset="1" stop-color="#F7A967"/>
</linearGradient>
<linearGradient id="paint3_linear_201_11" x1="6.88021" y1="8.65845" x2="6.88021" y2="4.48732" gradientUnits="userSpaceOnUse">
<stop stop-color="#FDA071"/>
<stop offset="1" stop-color="#FDA071" stop-opacity="0"/>
</linearGradient>
<radialGradient id="paint4_radial_201_11" cx="0" cy="0" r="1" gradientUnits="userSpaceOnUse" gradientTransform="translate(8.02084 15.3191) rotate(127.221) scale(7.15516 6.96778)">
<stop offset="0.364601" stop-color="#FFBC64"/>
<stop offset="1" stop-color="#FF8F6B"/>
</radialGradient>
</defs>
</svg>
