<svg width="34" height="21" viewBox="0 0 34 21" fill="none" xmlns="http://www.w3.org/2000/svg">
<path d="M3.01155 8.39966H30.4109V12.4755L24.3342 17.3663L3.01155 12.4755V8.39966Z" fill="#533566"/>
<path d="M29.3757 4.65512C29.892 5.51862 32.3415 9.42288 32.6793 9.96719C33.0172 10.5115 33.2957 12.1263 32.6793 13.0643C30.5207 16.3491 28.0892 18.0414 25.6029 19.0333C24.4112 19.5087 21.098 20.2346 18.5452 20.2346C16.0311 20.2346 7.39967 18.4139 0.325266 12.2443C0.117584 12.0631 1.2015e-05 11.8493 1.96207e-09 11.5737C-1.20111e-05 11.3847 0.0551401 11.1499 0.158657 10.9918L4.26947 4.71699C4.55641 4.1221 5.48719 2.86938 5.48719 2.86938C7.00582 1.11283 9.25229 5.55954e-05 11.7577 5.55954e-05C13.6543 -0.00688796 15.4039 0.636989 16.8035 1.70075C18.2032 0.636989 19.9528 -0.00688796 21.8494 5.55954e-05C24.3547 5.55954e-05 26.6082 1.11979 28.1268 2.87647C28.1268 2.87647 28.8594 3.79162 29.3757 4.65512ZM4.0934 11.5414C3.80828 11.6382 3.99891 11.9566 4.3 11.9566H14.7023L22.7894 14.9285C23.8535 15.3195 25.0404 15.1799 25.9848 14.5525L29.6238 12.1347C29.7913 12.0235 29.9099 11.8082 29.7608 11.6732C29.6795 11.5993 29.5817 11.5598 29.5343 11.5435L27.0138 10.688C20.2527 10.688 12.6137 10.688 6.60718 10.688L4.0934 11.5414Z" fill="#F92F60"/>
<path d="M6.50066 10.7238L7.99263 10.2173C13.7103 8.27879 19.9108 8.27879 25.6285 10.2173L27.124 10.725L26.8188 11.3778C26.5708 11.8571 26.0989 12.1776 25.5611 12.2238C23.8575 12.3702 19.9492 12.4424 16.8355 12.4447C16.5408 12.4446 16.246 12.4448 15.9512 12.445C13.3225 12.447 10.6927 12.4489 8.07503 12.2238C7.53729 12.1776 7.06533 11.8571 6.81726 11.3778L6.50066 10.7238Z" fill="#F3EEF8"/>
</svg>
