<svg width="31" height="33" viewBox="0 0 31 33" fill="none" xmlns="http://www.w3.org/2000/svg">
<path d="M7.59315 10.4747V8.47095H1.74273C1.58737 8.47095 1.46142 8.59689 1.46142 8.75225V8.78683C1.46142 9.71901 2.21709 10.4747 3.14926 10.4747H7.59315Z" fill="#CBC8C7"/>
<path d="M7.5931 12.4559V10.4749H3.29445C3.13909 10.4749 3.01314 10.5994 3.01314 10.753V10.7872C3.01314 11.7088 3.76881 12.4559 4.70099 12.4559H7.5931Z" fill="#BDBFBD"/>
<path d="M0.281308 6.48999C0.125958 6.48999 0 6.61595 0 6.7713V6.80588C0 7.73805 0.755671 8.49372 1.68785 8.49372H6.52532C6.7739 8.49372 6.97542 8.69524 6.97542 8.94381V11.8934C6.97542 12.2041 7.22733 12.4561 7.53803 12.4561H9.88311C11.5306 12.4561 12.8661 11.1205 12.8661 9.47301C12.8661 7.82555 11.5306 6.49002 9.88311 6.49002L0.281308 6.48999Z" fill="#D6D2D1"/>
<path d="M0.281308 6.48999C0.125958 6.48999 0 6.61595 0 6.7713V6.80588C0 7.73805 0.755671 8.49372 1.68785 8.49372H6.52532C6.7739 8.49372 6.97542 8.69524 6.97542 8.94381V11.8934C6.97542 12.2041 7.22733 12.4561 7.53803 12.4561H9.88311C11.5306 12.4561 12.8661 11.1205 12.8661 9.47301C12.8661 7.82555 11.5306 6.49002 9.88311 6.49002L0.281308 6.48999Z" fill="url(#paint0_radial_202_439)"/>
<path d="M18.0335 3.95511L4.45144 17.5371C3.48469 18.5039 3.4847 20.0713 4.45144 21.038L12.1666 28.7532C13.1334 29.72 14.7008 29.72 15.6675 28.7532L29.2496 15.1712C30.2163 14.2044 30.2163 12.637 29.2496 11.6703L21.5344 3.95511C20.5676 2.98836 19.0002 2.98836 18.0335 3.95511Z" fill="url(#paint1_linear_202_439)"/>
<path d="M18.0335 3.95511L4.45144 17.5371C3.48469 18.5039 3.4847 20.0713 4.45144 21.038L12.1666 28.7532C13.1334 29.72 14.7008 29.72 15.6675 28.7532L29.2496 15.1712C30.2163 14.2044 30.2163 12.637 29.2496 11.6703L21.5344 3.95511C20.5676 2.98836 19.0002 2.98836 18.0335 3.95511Z" fill="url(#paint2_linear_202_439)"/>
<path d="M18.0335 3.95511L4.45144 17.5371C3.48469 18.5039 3.4847 20.0713 4.45144 21.038L12.1666 28.7532C13.1334 29.72 14.7008 29.72 15.6675 28.7532L29.2496 15.1712C30.2163 14.2044 30.2163 12.637 29.2496 11.6703L21.5344 3.95511C20.5676 2.98836 19.0002 2.98836 18.0335 3.95511Z" fill="url(#paint3_linear_202_439)"/>
<path d="M18.0335 3.95511L4.45144 17.5371C3.48469 18.5039 3.4847 20.0713 4.45144 21.038L12.1666 28.7532C13.1334 29.72 14.7008 29.72 15.6675 28.7532L29.2496 15.1712C30.2163 14.2044 30.2163 12.637 29.2496 11.6703L21.5344 3.95511C20.5676 2.98836 19.0002 2.98836 18.0335 3.95511Z" fill="url(#paint4_radial_202_439)"/>
<path d="M18.0335 3.95511L4.45144 17.5371C3.48469 18.5039 3.4847 20.0713 4.45144 21.038L12.1666 28.7532C13.1334 29.72 14.7008 29.72 15.6675 28.7532L29.2496 15.1712C30.2163 14.2044 30.2163 12.637 29.2496 11.6703L21.5344 3.95511C20.5676 2.98836 19.0002 2.98836 18.0335 3.95511Z" fill="url(#paint5_radial_202_439)"/>
<path d="M15.8286 1.75052L2.24652 15.3326C1.27977 16.2993 1.27977 17.8667 2.24652 18.8335L9.9617 26.5486C10.9284 27.5154 12.4958 27.5154 13.4626 26.5486L27.0446 12.9666C28.0114 11.9998 28.0114 10.4324 27.0446 9.4657L19.3295 1.75052C18.3627 0.783774 16.7953 0.783774 15.8286 1.75052Z" fill="url(#paint6_radial_202_439)"/>
<path fill-rule="evenodd" clip-rule="evenodd" d="M17.1285 3.0579L3.55419 16.6322C3.30006 16.8863 3.30006 17.2984 3.55419 17.5524L11.2425 25.2408C11.4966 25.4949 11.9086 25.4949 12.1627 25.2408L25.737 11.6665C25.9912 11.4123 25.9912 11.0003 25.737 10.7462L18.0488 3.0579C17.7946 2.80376 17.3827 2.80376 17.1285 3.0579ZM3.09405 16.172C2.58578 16.6803 2.58578 17.5044 3.09405 18.0127L10.7823 25.7009C11.2906 26.2092 12.1147 26.2092 12.6229 25.7009L26.1972 12.1266C26.7054 11.6183 26.7054 10.7943 26.1972 10.286L18.5089 2.59774C18.0006 2.08949 17.1766 2.08949 16.6684 2.59774L3.09405 16.172Z" fill="url(#paint7_linear_202_439)"/>
<path d="M20.2345 13.7948C21.8016 12.2276 21.9003 9.7855 20.455 8.34013C19.0096 6.89476 16.5674 6.99348 15.0003 8.56062C13.4332 10.1278 13.3344 12.5699 14.7798 14.0153C16.2252 15.4606 18.6673 15.3619 20.2345 13.7948Z" fill="#289D5B"/>
<path d="M20.2345 13.7948C21.8016 12.2276 21.9003 9.7855 20.455 8.34013C19.0096 6.89476 16.5674 6.99348 15.0003 8.56062C13.4332 10.1278 13.3344 12.5699 14.7798 14.0153C16.2252 15.4606 18.6673 15.3619 20.2345 13.7948Z" fill="url(#paint8_linear_202_439)"/>
<path d="M20.2345 13.7948C21.8016 12.2276 21.9003 9.7855 20.455 8.34013C19.0096 6.89476 16.5674 6.99348 15.0003 8.56062C13.4332 10.1278 13.3344 12.5699 14.7798 14.0153C16.2252 15.4606 18.6673 15.3619 20.2345 13.7948Z" fill="url(#paint9_radial_202_439)"/>
<path d="M8.68126 9.45036L11.2313 6.90039L22.1709 17.8401L19.525 20.4859L8.68126 9.45036Z" fill="#127531"/>
<path d="M21.7203 22.4705L24.2607 19.9301L22.1709 17.8403L19.5251 20.4861L21.7203 22.4705Z" fill="#0B3F2E"/>
<path d="M8.46237 9.11646L11.1466 6.43227L24.5675 19.8532L21.8833 22.5374L8.46237 9.11646Z" fill="url(#paint10_linear_202_439)"/>
<path d="M8.46237 9.11646L11.1466 6.43227L24.5675 19.8532L21.8833 22.5374L8.46237 9.11646Z" fill="url(#paint11_linear_202_439)"/>
<path d="M8.14837 16.1937C7.94058 15.9859 7.94058 15.649 8.14837 15.4412C8.35618 15.2335 8.69306 15.2335 8.90089 15.4412L9.3152 15.8555C10.0797 15.3911 10.8589 15.58 11.3071 15.9445C11.5624 16.1521 11.5928 16.4357 11.4114 16.6588C11.2301 16.8818 10.9022 16.9157 10.6791 16.7343C10.533 16.6156 10.0777 16.3017 9.51201 16.8672C8.70195 17.6772 9.75168 18.7653 10.6911 17.8258C11.0937 17.4232 11.7528 17.2306 12.213 17.3058C12.692 17.3839 13.0638 17.6245 13.3278 17.9753C13.7267 18.6095 13.6733 19.2754 13.312 19.8523L13.7109 20.2512C13.9186 20.459 13.9186 20.7959 13.7109 21.0038C13.5031 21.2115 13.1662 21.2115 12.9584 21.0038L12.5684 20.6138C11.9309 21.0263 11.1809 21.0233 10.5401 20.5172C10.3145 20.339 10.2578 20.0294 10.436 19.8038C10.6143 19.5782 10.9416 19.5398 11.1672 19.7181C11.2793 19.8065 11.4616 19.9081 11.6577 19.9294C11.8254 19.9477 12.0354 19.904 12.2921 19.6472C12.612 19.3274 12.6645 19.041 12.6133 18.8276C12.503 18.2188 11.7656 18.0647 11.3311 18.4992C10.725 19.0575 10.2918 19.1955 9.80704 19.1748C9.41321 19.158 9.01533 18.9923 8.73076 18.7077C8.54839 18.5254 8.30622 18.1765 8.26278 17.7329C8.22777 17.3758 8.30242 16.981 8.55109 16.5965L8.14837 16.1937Z" fill="url(#paint12_linear_202_439)"/>
<path d="M21.1803 24.4817H23.184V30.3321C23.184 30.4875 23.0581 30.6134 22.9027 30.6134H22.8682C21.9359 30.6134 21.1803 29.8577 21.1803 28.9256V24.4817Z" fill="#C8C2C3"/>
<path d="M19.1765 24.4817H21.1802V28.7803C21.1802 28.9357 21.0543 29.0616 20.8989 29.0616H20.8644C19.9322 29.0616 19.1765 28.3059 19.1765 27.3738V24.4817Z" fill="#C8C2C3"/>
<path d="M22.1709 19.2085C20.5171 19.2085 19.1765 20.544 19.1765 22.1915V24.5366C19.1765 24.8474 19.4293 25.0992 19.7413 25.0992H22.7021C22.9515 25.0992 23.1539 25.3007 23.1539 25.5493V30.3868C23.1539 31.3189 23.9124 32.0746 24.8481 32.0746H24.8829C25.0388 32.0746 25.1652 31.9487 25.1652 31.7933V22.1915C25.1652 20.544 23.8246 19.2085 22.1709 19.2085Z" fill="#DBD7D7"/>
<defs>
<radialGradient id="paint0_radial_202_439" cx="0" cy="0" r="1" gradientUnits="userSpaceOnUse" gradientTransform="translate(1.83743 6.71921) scale(8.76821 1.5513)">
<stop stop-color="#E3E1E1"/>
<stop offset="1" stop-color="#E3E1E1" stop-opacity="0"/>
</radialGradient>
<linearGradient id="paint1_linear_202_439" x1="29.1402" y1="13.785" x2="13.7637" y2="29.1616" gradientUnits="userSpaceOnUse">
<stop stop-color="#12724A"/>
<stop offset="1" stop-color="#116245"/>
</linearGradient>
<linearGradient id="paint2_linear_202_439" x1="29.7154" y1="12.1361" x2="28.0857" y2="13.7658" gradientUnits="userSpaceOnUse">
<stop stop-color="#1C8F60"/>
<stop offset="1" stop-color="#1C8F60" stop-opacity="0"/>
</linearGradient>
<linearGradient id="paint3_linear_202_439" x1="12.5558" y1="29.1424" x2="14.243" y2="27.4552" gradientUnits="userSpaceOnUse">
<stop offset="0.556818" stop-color="#195840"/>
<stop offset="1" stop-color="#195840" stop-opacity="0"/>
</linearGradient>
<radialGradient id="paint4_radial_202_439" cx="0" cy="0" r="1" gradientUnits="userSpaceOnUse" gradientTransform="translate(20.42 21.1327) rotate(114.806) scale(4.60976 4.37384)">
<stop offset="0.306788" stop-color="#0E593C"/>
<stop offset="1" stop-color="#0E593C" stop-opacity="0"/>
</radialGradient>
<radialGradient id="paint5_radial_202_439" cx="0" cy="0" r="1" gradientUnits="userSpaceOnUse" gradientTransform="translate(20.3497 22.5392) rotate(138.249) scale(5.70309 1.20934)">
<stop offset="0.396008" stop-color="#0F4F35"/>
<stop offset="1" stop-color="#0F4F35" stop-opacity="0"/>
</radialGradient>
<radialGradient id="paint6_radial_202_439" cx="0" cy="0" r="1" gradientUnits="userSpaceOnUse" gradientTransform="translate(1.3109 17.1501) rotate(3.2593) scale(16.8609 22.1108)">
<stop stop-color="#31DE74"/>
<stop offset="1" stop-color="#20CF5E"/>
</radialGradient>
<linearGradient id="paint7_linear_202_439" x1="15.9973" y1="3.69059" x2="14.1184" y2="23.5919" gradientUnits="userSpaceOnUse">
<stop stop-color="#24A35B"/>
<stop offset="1" stop-color="#27A05A"/>
</linearGradient>
<linearGradient id="paint8_linear_202_439" x1="16.9942" y1="12.4336" x2="18.0871" y2="11.3407" gradientUnits="userSpaceOnUse">
<stop offset="0.22807" stop-color="#269553"/>
<stop offset="1" stop-color="#269553" stop-opacity="0"/>
</linearGradient>
<radialGradient id="paint9_radial_202_439" cx="0" cy="0" r="1" gradientUnits="userSpaceOnUse" gradientTransform="translate(18.0296 11.5899) rotate(-85.8023) scale(4.1909 4.11927)">
<stop offset="0.587108" stop-color="#249755" stop-opacity="0"/>
<stop offset="0.986856" stop-color="#16793D"/>
</radialGradient>
<linearGradient id="paint10_linear_202_439" x1="10.8207" y1="8.7905" x2="21.4424" y2="19.4122" gradientUnits="userSpaceOnUse">
<stop stop-color="#FFD425"/>
<stop offset="1" stop-color="#FFAD24"/>
</linearGradient>
<linearGradient id="paint11_linear_202_439" x1="23.8773" y1="20.5435" x2="21.519" y2="18.1852" gradientUnits="userSpaceOnUse">
<stop offset="0.893939" stop-color="#CC8139"/>
<stop offset="1" stop-color="#CC8139" stop-opacity="0"/>
</linearGradient>
<linearGradient id="paint12_linear_202_439" x1="8.14363" y1="15.446" x2="13.7061" y2="21.0085" gradientUnits="userSpaceOnUse">
<stop stop-color="#EFEAEA"/>
<stop offset="1" stop-color="#EAE3E3"/>
</linearGradient>
</defs>
</svg>
