<svg width="56" height="69" viewBox="0 0 56 69" fill="none" xmlns="http://www.w3.org/2000/svg">
<path d="M12.65 25.3C12.0149 25.3 11.5 25.815 11.5 26.45C11.5 27.0851 12.0149 27.6 12.65 27.6H42.55C43.185 27.6 43.7 27.0851 43.7 26.45C43.7 25.815 43.185 25.3 42.55 25.3H12.65Z" fill="white"/>
<path d="M12.65 32.2C12.0149 32.2 11.5 32.7149 11.5 33.35C11.5 33.985 12.0149 34.5 12.65 34.5H42.55C43.185 34.5 43.7 33.985 43.7 33.35C43.7 32.7149 43.185 32.2 42.55 32.2H12.65Z" fill="white"/>
<path d="M11.5 40.2499C11.5 39.6148 12.0149 39.0999 12.65 39.0999H42.55C43.185 39.0999 43.7 39.6148 43.7 40.2499C43.7 40.8849 43.185 41.3999 42.55 41.3999H12.65C12.0149 41.3999 11.5 40.8849 11.5 40.2499Z" fill="white"/>
<path d="M12.65 46C12.0149 46 11.5 46.515 11.5 47.15C11.5 47.785 12.0149 48.3 12.65 48.3H31.05C31.685 48.3 32.2 47.785 32.2 47.15C32.2 46.515 31.685 46 31.05 46H12.65Z" fill="white"/>
<path d="M0 6.9C0 3.08924 3.08924 0 6.9 0H36.9157C37.5257 0 38.1105 0.242328 38.542 0.673647L54.5263 16.658C54.9576 17.0894 55.2 17.6744 55.2 18.2844V62.1C55.2 65.9109 52.1109 69 48.3 69H6.9C3.08922 69 0 65.9109 0 62.1V6.9ZM6.9 4.6C5.62976 4.6 4.6 5.62976 4.6 6.9V62.1C4.6 63.3703 5.62976 64.4 6.9 64.4H48.3C49.5703 64.4 50.6 63.3703 50.6 62.1V19.2371L49.763 18.4H39.0839C37.8226 18.4 36.8 17.3703 36.8 16.1V5.43706L35.963 4.6H6.9Z" fill="white"/>
</svg>
