<svg width="27" height="27" viewBox="0 0 27 27" fill="none" xmlns="http://www.w3.org/2000/svg">
<path d="M0 3.85714C0 1.7269 1.7269 0 3.85714 0H23.1429C25.2731 0 27 1.7269 27 3.85714V23.1429C27 25.2731 25.2731 27 23.1429 27H3.85714C1.7269 27 0 25.2731 0 23.1429V3.85714Z" fill="#F92F60"/>
<path d="M10.0497 11.7445C10.0497 9.83059 11.6012 8.27905 13.5152 8.27905C15.429 8.27905 16.9805 9.83059 16.9805 11.7445V15.24C16.9805 17.154 15.429 18.7054 13.5152 18.7054C11.6012 18.7054 10.0497 17.154 10.0497 15.24V11.7445ZM13.5152 10.2076C12.6664 10.2076 11.9783 10.8957 11.9783 11.7445V15.24C11.9783 16.0888 12.6664 16.7768 13.5152 16.7768C14.3639 16.7768 15.0519 16.0888 15.0519 15.24V11.7445C15.0519 10.8957 14.3639 10.2076 13.5152 10.2076Z" fill="white"/>
<path d="M2.65236 11.2377C2.70214 9.73413 4.11187 8.40698 5.8159 8.40698C6.5305 8.40698 7.19159 8.66281 7.68737 8.92712C8.19055 9.19538 8.60857 9.51813 8.85967 9.75602C9.24625 10.1223 9.26274 10.7326 8.8965 11.1192C8.53027 11.5058 7.91987 11.5223 7.53329 11.1561C7.40269 11.0323 7.12463 10.8127 6.78002 10.6289C6.42804 10.4412 6.08968 10.3356 5.8159 10.3356C5.04893 10.3356 4.59192 10.9378 4.57988 11.3016C4.57244 11.5261 4.64531 11.7151 4.9044 11.9307C5.20064 12.1772 5.706 12.4197 6.46572 12.6307C7.54235 12.9298 8.39025 13.5022 8.82958 14.3351C9.27894 15.1873 9.2071 16.1367 8.78108 16.9573C8.3782 17.7333 7.59385 18.4055 6.49527 18.5435C5.40838 18.68 4.18711 18.2743 2.90289 17.2736C2.4828 16.9462 2.40761 16.3404 2.73496 15.9203C3.06229 15.5002 3.66819 15.425 4.08827 15.7523C5.12436 16.5596 5.84396 16.6816 6.25485 16.6299C6.65406 16.5798 6.92443 16.348 7.06947 16.0686C7.25361 15.714 7.23146 15.4392 7.12363 15.2347C7.00574 15.0112 6.68977 14.6946 5.94955 14.4889C5.08204 14.2479 4.27281 13.9141 3.67068 13.413C3.03139 12.8809 2.62213 12.1508 2.65236 11.2377Z" fill="white"/>
<path d="M21.1542 8.40698C19.4501 8.40698 18.0404 9.73413 17.9907 11.2377C17.9604 12.1508 18.3696 12.8809 19.009 13.413C19.6111 13.9141 20.4203 14.2479 21.2879 14.4889C22.028 14.6946 22.344 15.0112 22.4619 15.2347C22.5698 15.4392 22.5919 15.714 22.4078 16.0686C22.2627 16.348 21.9924 16.5798 21.5931 16.6299C21.1823 16.6816 20.4626 16.5596 19.4266 15.7523C19.0064 15.425 18.4006 15.5002 18.0732 15.9203C17.7459 16.3404 17.8211 16.9462 18.2412 17.2736C19.5254 18.2743 20.7467 18.68 21.8335 18.5435C22.9322 18.4055 23.7164 17.7333 24.1194 16.9573C24.5454 16.1367 24.6171 15.1873 24.1679 14.3351C23.7286 13.5022 22.8807 12.9298 21.804 12.6307C21.0443 12.4197 20.5389 12.1772 20.2427 11.9307C19.9836 11.7151 19.9108 11.5261 19.9182 11.3016C19.9302 10.9378 20.3872 10.3356 21.1542 10.3356C21.428 10.3356 21.7663 10.4412 22.1183 10.6289C22.4629 10.8127 22.7409 11.0323 22.8716 11.1561C23.2582 11.5223 23.8685 11.5058 24.2348 11.1192C24.601 10.7326 24.5846 10.1223 24.198 9.75602C23.9469 9.51813 23.5289 9.19538 23.0257 8.92712C22.5299 8.66281 21.8687 8.40698 21.1542 8.40698Z" fill="white"/>
</svg>
