<svg width="28" height="28" viewBox="0 0 28 28" fill="none" xmlns="http://www.w3.org/2000/svg">
<path d="M14 28C23.3351 28 28 21.732 28 14C28 6.268 23.3351 0 14 0C4.6648 0 0 6.268 0 14C0 21.732 4.6648 28 14 28Z" fill="url(#paint0_radial_202_397)"/>
<path d="M14 28C23.3351 28 28 21.732 28 14C28 6.268 23.3351 0 14 0C4.6648 0 0 6.268 0 14C0 21.732 4.6648 28 14 28Z" fill="url(#paint1_radial_202_397)"/>
<path d="M14 28C23.3351 28 28 21.732 28 14C28 6.268 23.3351 0 14 0C4.6648 0 0 6.268 0 14C0 21.732 4.6648 28 14 28Z" fill="url(#paint2_radial_202_397)"/>
<path d="M14 28C23.3351 28 28 21.732 28 14C28 6.268 23.3351 0 14 0C4.6648 0 0 6.268 0 14C0 21.732 4.6648 28 14 28Z" fill="url(#paint3_radial_202_397)" fill-opacity="0.6"/>
<path d="M14 28C23.3351 28 28 21.732 28 14C28 6.268 23.3351 0 14 0C4.6648 0 0 6.268 0 14C0 21.732 4.6648 28 14 28Z" fill="url(#paint4_radial_202_397)"/>
<path d="M14 28C23.3351 28 28 21.732 28 14C28 6.268 23.3351 0 14 0C4.6648 0 0 6.268 0 14C0 21.732 4.6648 28 14 28Z" fill="url(#paint5_radial_202_397)"/>
<path d="M14 28C23.3351 28 28 21.732 28 14C28 6.268 23.3351 0 14 0C4.6648 0 0 6.268 0 14C0 21.732 4.6648 28 14 28Z" fill="url(#paint6_radial_202_397)"/>
<path d="M14 28C23.3351 28 28 21.732 28 14C28 6.268 23.3351 0 14 0C4.6648 0 0 6.268 0 14C0 21.732 4.6648 28 14 28Z" fill="url(#paint7_radial_202_397)"/>
<path d="M7.0176 11.9071C9.59879 11.9071 11.6913 13.9995 11.6913 16.5807C11.6913 19.1619 9.59879 21.2544 7.0176 21.2544C4.4364 21.2544 2.34393 19.1619 2.34393 16.5807C2.34393 13.9995 4.4364 11.9071 7.0176 11.9071Z" fill="url(#paint8_radial_202_397)"/>
<path d="M17.2457 11.8134C19.5899 11.8134 21.4903 13.7138 21.4903 16.0581C21.4903 18.4023 19.5899 20.3027 17.2457 20.3027C14.9014 20.3027 13.001 18.4023 13.001 16.0581C13.001 13.7138 14.9014 11.8134 17.2457 11.8134Z" fill="url(#paint9_radial_202_397)"/>
<path d="M8.41976 13.7769C10.7428 13.7769 12.6261 15.66 12.6261 17.9831C12.6261 20.3062 10.7428 22.1894 8.41976 22.1894C6.09669 22.1894 4.21346 20.3062 4.21346 17.9831C4.21346 15.66 6.09669 13.7769 8.41976 13.7769Z" fill="white"/>
<path d="M19.5698 13.6997C21.914 13.6997 23.8145 15.6001 23.8145 17.9443C23.8145 20.2886 21.914 22.189 19.5698 22.189C17.2256 22.189 15.3252 20.2886 15.3252 17.9443C15.3252 15.6001 17.2256 13.6997 19.5698 13.6997Z" fill="white"/>
<path d="M9.00071 15.0012C10.6577 15.0012 12.0009 16.3444 12.0009 18.0015C12.0009 19.6585 10.6577 21.0017 9.00071 21.0017C7.34373 21.0017 6.00047 19.6585 6.00047 18.0015C6.00047 16.3444 7.34373 15.0012 9.00071 15.0012Z" fill="url(#paint10_linear_202_397)"/>
<path d="M19.0015 15.0012C20.6585 15.0012 22.0017 16.3444 22.0017 18.0015C22.0017 19.6585 20.6585 21.0017 19.0015 21.0017C17.3445 21.0017 16.0013 19.6585 16.0013 18.0015C16.0013 16.3444 17.3445 15.0012 19.0015 15.0012Z" fill="url(#paint11_linear_202_397)"/>
<path fill-rule="evenodd" clip-rule="evenodd" d="M8.40076 11.801C8.84259 12.1324 9.46944 12.0429 9.80087 11.601C10.1102 11.1885 11.5127 10.0008 14.0012 10.0008C16.4896 10.0008 17.8921 11.1885 18.2015 11.601C18.5329 12.0429 19.1597 12.1324 19.6016 11.801C20.0435 11.4697 20.133 10.8428 19.8017 10.4009C19.1109 9.48001 17.1131 8.00073 14.0012 8.00073C10.8892 8.00073 8.8914 9.48001 8.20074 10.4009C7.86931 10.8428 7.95886 11.4697 8.40076 11.801Z" fill="url(#paint12_radial_202_397)"/>
<defs>
<radialGradient id="paint0_radial_202_397" cx="0" cy="0" r="1" gradientUnits="userSpaceOnUse" gradientTransform="translate(23.5018 7.00055) rotate(132.839) scale(37.5062)">
<stop stop-color="#FFF478"/>
<stop offset="0.474827" stop-color="#FFB02E"/>
<stop offset="1" stop-color="#F70A8D"/>
</radialGradient>
<radialGradient id="paint1_radial_202_397" cx="0" cy="0" r="1" gradientUnits="userSpaceOnUse" gradientTransform="translate(23.5018 7.00055) rotate(131.878) scale(38.9518)">
<stop stop-color="#FFF478"/>
<stop offset="0.474827" stop-color="#FFB02E"/>
<stop offset="1" stop-color="#F70A8D"/>
</radialGradient>
<radialGradient id="paint2_radial_202_397" cx="0" cy="0" r="1" gradientUnits="userSpaceOnUse" gradientTransform="translate(14.0011 10.5008) rotate(101.31) scale(17.848 22.8599)">
<stop offset="0.787821" stop-color="#F59639" stop-opacity="0"/>
<stop offset="0.972509" stop-color="#FF7DCE"/>
</radialGradient>
<radialGradient id="paint3_radial_202_397" cx="0" cy="0" r="1" gradientUnits="userSpaceOnUse" gradientTransform="translate(16.0013 12.0009) rotate(135) scale(41.0154)">
<stop offset="0.314853" stop-opacity="0"/>
<stop offset="1"/>
</radialGradient>
<radialGradient id="paint4_radial_202_397" cx="0" cy="0" r="1" gradientUnits="userSpaceOnUse" gradientTransform="translate(14.0011 15.0012) rotate(77.692) scale(28.1491)">
<stop offset="0.507903" stop-color="#7D6133" stop-opacity="0"/>
<stop offset="1" stop-color="#715B32"/>
</radialGradient>
<radialGradient id="paint5_radial_202_397" cx="0" cy="0" r="1" gradientUnits="userSpaceOnUse" gradientTransform="translate(14.5011 14.5011) rotate(55.7131) scale(13.3145 9.65108)">
<stop stop-color="#FFB849"/>
<stop offset="1" stop-color="#FFB847" stop-opacity="0"/>
</radialGradient>
<radialGradient id="paint6_radial_202_397" cx="0" cy="0" r="1" gradientUnits="userSpaceOnUse" gradientTransform="translate(18.5015 16.0013) rotate(9.86581) scale(11.6735)">
<stop stop-color="#FFA64B"/>
<stop offset="0.900412" stop-color="#FFAE46" stop-opacity="0"/>
</radialGradient>
<radialGradient id="paint7_radial_202_397" cx="0" cy="0" r="1" gradientUnits="userSpaceOnUse" gradientTransform="translate(15.5012 13.001) rotate(43.9708) scale(59.0575)">
<stop offset="0.185425" stop-opacity="0"/>
<stop offset="1" stop-opacity="0.4"/>
</radialGradient>
<radialGradient id="paint8_radial_202_397" cx="0" cy="0" r="1" gradientUnits="userSpaceOnUse" gradientTransform="translate(15.3263 15.5421) rotate(-135) scale(9.10651 4.71322)">
<stop stop-color="#392108"/>
<stop offset="1" stop-color="#C87928" stop-opacity="0"/>
</radialGradient>
<radialGradient id="paint9_radial_202_397" cx="0" cy="0" r="1" gradientUnits="userSpaceOnUse" gradientTransform="translate(24.7917 15.1148) rotate(-135) scale(7.67028 4.33)">
<stop stop-color="#392108"/>
<stop offset="1" stop-color="#C87928" stop-opacity="0"/>
</radialGradient>
<linearGradient id="paint10_linear_202_397" x1="14.5011" y1="22.0018" x2="13.5011" y2="15.0012" gradientUnits="userSpaceOnUse">
<stop stop-color="#553B3E"/>
<stop offset="1" stop-color="#3D2432"/>
</linearGradient>
<linearGradient id="paint11_linear_202_397" x1="14.5011" y1="22.0018" x2="13.5011" y2="15.0012" gradientUnits="userSpaceOnUse">
<stop stop-color="#553B3E"/>
<stop offset="1" stop-color="#3D2432"/>
</linearGradient>
<radialGradient id="paint12_radial_202_397" cx="0" cy="0" r="1" gradientUnits="userSpaceOnUse" gradientTransform="translate(14.0012 13.0011) rotate(-90) scale(5.50043 8.41921)">
<stop offset="0.34763" stop-color="#241A1A"/>
<stop offset="0.628228" stop-color="#57444A"/>
<stop offset="1" stop-color="#502A56"/>
</radialGradient>
</defs>
</svg>
